<svg width="1000" height="784" viewBox="0 0 1000 784" fill="none" xmlns="http://www.w3.org/2000/svg">
<g clip-path="url(#clip0)">
<path d="M486.37 434.685V414.893H468.185V434.685H486.37Z" fill="#28204A"/>
<path d="M503.555 665.534V656.592H481.853V665.534H503.555Z" fill="#28204A"/>
<path d="M683.264 519.158V488.514H670.404V519.158H683.264Z" fill="#28204A"/>
<path d="M633.031 641.366V584.097H587.819V641.366H633.031Z" fill="#28204A"/>
<path d="M610.383 610.021V592.941H574.515V610.021H610.383Z" fill="#28204A"/>
<path d="M390.628 684.191V650.332H361.994V684.191H390.628Z" fill="#28204A"/>
<path d="M483.37 283.807V221.515H433.034V283.807H483.37Z" fill="#28204A"/>
<path d="M404.455 717.622V679.343H348.894V717.622L367.984 736.712H382.351L404.455 717.622Z" fill="#28204A"/>
<path d="M537.88 646.891H498.093V675.224H537.88V697.83H556.266H564.404H581.786V583.997H556.266V646.891H543.104H537.88Z" fill="#28204A"/>
<path d="M489.654 646.891H444.743V612.228H409.981V537.478H418.822V555.864H447.959H475.588H486.338V525.723H475.588V486.74H490.257H512.159H520.599H554.458V487.343H618.257V478.1H640.561V442.232H648.498V481.717V494.778H665.679H683.362V481.717H665.679V465.44H683.763V432.787H683.362V427.462H640.561H636.341H608.611V459.111H557.17V435.299H512.159V456.9H490.257V427.061H448.863V477.497H447.959V510.049H409.981V509.346H360.951V538.684H301.974V497.792L287.909 485.334V477.597L275.551 453.484L278.062 437.409L277.661 427.563L287.507 422.941L293.133 402.043H298.056V397.02H302.979V376.926H366.577V353.516H357.334V336.134H391.293V392.8H393.604H414.803H436.907L441.83 401.541L448.863 403.952V418.521L451.977 420.932H490.357V365.372H457.302V365.271H414.803V336.134V335.331V319.657V316.141V285.095H425.453V279.268L431.381 279.569V299.764H538.382L537.88 305.19H523.312V342.062L546.621 362.156H556.467L579.776 343.067V305.491H566.414L566.514 299.764H584.599V259.777H564.605V223.205L578.772 222.201V222.502H626.294V212.254H630.815V223.607H654.125V222.502H679.343V221.497H684.969V247.318H725.157V235.161H758.413V228.53H759.217H765.346V243.902H771.173V251.237H765.145V328.197L815.581 368.988V400.536L761.729 441.127V457.604H754.696V451.174H698.734V474.583H698.935V490.558H689.49V505.428H682.357V505.227H640.862V488.549H567.519V551.042H604.793V619.362H667.99V641.465H724.957L725.157 634.432L746.457 615.544L749.974 615.745V631.318H797.095V576.662H796.894V558.577H791.267V552.549H797.095V474.483H797.295V457.704H797.095V451.676C797.095 451.073 797.295 437.309 797.295 437.309H841.603L848.134 441.629L867.223 429.673L873.05 434.395L968.9 411.186V353.215L868.127 332.618V327.193L803.123 324.781V252.04H792.473V244.003L791.77 244.204V244.003H792.473H799.908V104.549H785.842V104.348H737.314V49.1899H705.767V59.237H702.15V49.1899H651.914V59.237V73.5039V81.642V99.3249H606.3V126.753H598.464V113.592H582.087V107.965H589.321V49.1899H537.177V74.0062H434.696V88.3736H423.846V74.3076H394.609L382.753 70.7912L320.863 129.064V183.72V189.447V313.629H306.094C306.094 313.629 297.152 309.912 232.147 326.791C215.67 331.111 204.116 342.967 175.683 364.367C167.444 370.496 156.091 377.127 144.939 384.963C128.06 396.919 100.43 386.37 84.4552 400.134C73.7048 409.378 69.2841 419.023 62.5526 424.047C48.2857 434.696 38.2386 434.395 38.2386 434.395L41.4537 450.47L39.2434 466.144L65.5667 483.425L129.868 495.883L165.937 520.498L247.117 589.723H253.246V590.426L359.946 589.421L358.941 612.128H359.243V675.123H410.784V694.916H489.654V646.891ZM761.93 474.483V552.549H768.259V558.577H761.126V576.662H750.074L750.275 595.249H744.85L725.258 577.264L725.157 556.266H743.845V511.758L734.501 501.71L724.153 490.558H717.321V474.583H755.198V474.382H761.93V474.483ZM679.343 81.642H702.15V73.5039H705.767V104.348V123.036V124.543H765.446V214.464H759.318V130.873H690.093V130.973H679.443V81.642H679.343ZM454.188 107.965H537.076H540.392H559.783V113.592H553.151L540.392 124.342V154.785L553.151 164.129H598.464V148.957H606.3V156.191L630.916 170.157V190.653H626.395V181.108H578.872V190.653H553.955V180.103H507.839V190.653V213.158V221.296H541.396V259.877H533.962V248.825H454.188V177.592V164.43V107.965ZM355.324 316.141L356.028 300.568L359.142 298.86V246.113L356.028 240.486V189.447H384.762V177.391H432.988V263.092H426.357H425.353V245.711H391.695V280.273H391.293V316.04H355.324V316.141ZM251.739 538.684C242.697 535.368 230.841 527.732 225.014 522.709C217.78 516.48 208.838 502.514 201.303 498.797C197.384 496.888 187.94 498.194 184.122 496.185C175.381 491.663 164.932 473.177 156.493 468.153C155.187 467.349 151.771 467.349 150.465 466.445C147.35 464.436 141.824 458.809 140.92 455.192C140.417 453.083 142.829 447.356 142.427 446.552C142.025 445.849 140.216 442.734 140.216 441.327C140.116 437.309 142.326 428.266 145.843 426.357C146.848 425.855 149.56 427.161 150.364 426.357C158.804 417.214 173.774 404.254 173.774 404.254C173.774 404.254 194.069 392.499 200.298 387.475C205.924 382.853 216.373 372.103 222.201 367.682C230.841 361.152 245.711 349.598 259.978 346.383C261.284 346.081 278.565 343.268 283.488 346.383C284.995 347.387 286.703 351.105 286.703 352.913C286.402 373.711 260.781 399.934 255.959 420.128C254.854 424.75 252.342 443.94 253.949 448.461C254.653 450.47 257.667 454.489 257.667 454.489C257.667 454.489 257.667 468.656 258.37 473.378C259.274 479.205 262.289 490.759 264.7 496.185C268.819 505.327 279.268 525.522 279.268 525.02C279.268 524.517 257.667 540.794 251.739 538.684Z" fill="#28204A"/>
<path d="M409.88 536.875H418.721V555.864H486.338V525.723H475.487V486.841H555.261L567.921 509.949V551.042H605.195V584.097H587.814V592.637H582.087V583.996H556.467V646.891H498.093V656.536H489.955V646.589H444.643V612.932H409.076L409.88 536.875Z" stroke="#60558F" stroke-width="2" stroke-miterlimit="10"/>
<path d="M648.498 442.332H641.264V505.126H670.401V494.878H648.498V442.332Z" stroke="#60558F" stroke-width="2" stroke-miterlimit="10"/>
<path d="M683.261 481.717V505.126H689.49V489.554H699.135V451.073H755.901V457.403H762.332V440.222L815.782 400.536V368.989L765.346 328.197V251.237H771.374V244.103H765.044V228.329H758.614V236.166H753.792L753.992 234.358H725.258V247.318H684.869V222.502H629.71V212.254H626.194V222.502H564.806V259.777H584.599V299.664H566.414V305.491H579.676V343.067L556.467 362.157H546.621L523.312 342.163V305.29H537.88V299.764H431.381V279.57H425.051V284.493H414.803V365.271H490.357V421.635H486.338V426.659H490.357V457.503H511.958V435.299H557.17V459.312H608.611V427.463H683.763V465.441H665.478V481.315L683.261 481.717Z" stroke="#60558F" stroke-width="2" stroke-miterlimit="10"/>
<path d="M760.825 474.483H716.818V490.458H724.052L744.247 512.059V556.166H725.057V577.365L744.749 595.349H750.175V576.561H761.226V558.477H768.36V551.745H760.825V474.483Z" stroke="#60558F" stroke-width="2" stroke-miterlimit="10"/>
<path d="M448.863 403.752V418.32H451.575V421.535H468.153V426.86H448.963V509.949H360.549V538.684H301.773C301.773 538.684 302.376 498.295 301.773 497.792C301.171 497.189 287.306 485.434 287.708 485.334C288.109 485.233 287.708 477.598 287.708 477.598L275.35 453.485V447.758L277.861 437.409L277.459 427.563L287.306 422.942L292.932 402.044H297.855V397.02H302.778V376.926H366.577V353.416H357.334V335.331H391.293V392.8H437.007L439.519 395.212L439.619 398.728L444.141 402.747L448.863 403.752Z" stroke="#60558F" stroke-width="2" stroke-miterlimit="10"/>
<path d="M391.795 246.213V316.141H356.128V300.668L359.142 298.96V246.213L356.932 240.587V189.548H384.863V178.094H433.089V263.193H426.458V245.811L391.795 246.213Z" stroke="#60558F" stroke-width="2" stroke-miterlimit="10"/>
<path d="M541.396 221.598V259.777H533.961V248.725H483.425V221.598H454.188V107.966H559.481V113.592H553.151L540.492 124.443V154.785L550.841 164.229H599.067V149.058H606.3V155.79L630.916 170.257V190.754H626.395V181.209H578.571V191.557H553.855V180.204H507.739V221.297L541.396 221.598Z" stroke="#60558F" stroke-width="2" stroke-miterlimit="10"/>
<path d="M706.068 73.5039H702.15V81.7425H679.343V130.873H758.815V214.464H765.446V123.438H705.566L706.068 73.5039Z" stroke="#60558F" stroke-width="2" stroke-miterlimit="10"/>
<path d="M702.15 49.1899V58.5337H706.47V49.1899H737.314V104.549H799.908V244.003H792.473V252.041H803.123V324.781L868.127 327.193V332.618L968.9 353.215V393.604V411.086L873.05 434.295L867.223 429.572L848.134 441.528L841.603 437.208H797.295V552.348H791.569V558.677H797.195V630.313H750.677V615.544H746.558L725.258 634.432V641.365H668.994V619.261H634.231V641.365H586.608V609.616H582.288V697.829H537.98V675.224H498.495V665.277H489.754V695.016H410.282V675.224H390.69V679.343H404.555V716.718L382.452 736.712H368.084L348.492 717.22V679.041H361.955V675.123H359.142V589.723H247.017C247.017 589.723 171.764 523.111 144.738 504.323C141.221 501.911 129.767 495.883 129.767 495.883C129.767 495.883 84.7566 487.645 65.4662 483.425C58.3328 481.817 39.1428 466.144 39.1428 466.144C39.1428 466.144 41.956 458.508 41.3532 450.47C40.6499 440.725 38.1381 434.395 38.1381 434.395C38.1381 434.395 55.2182 429.371 60.0408 425.955C68.2794 420.128 79.934 402.847 88.474 397.522C91.5886 395.613 98.722 393.503 102.339 392.8C107.563 391.795 123.639 391.494 123.639 391.494C123.639 391.494 139.915 387.174 144.939 384.762C155.086 379.839 182.113 359.343 182.113 359.343C182.113 359.343 208.135 338.345 217.78 332.819C222.502 330.106 237.774 324.38 237.774 324.38C237.774 324.38 277.761 314.533 291.425 313.127C298.759 312.323 320.762 313.127 320.762 313.127V129.165L383.356 71.5949L393.302 74.4081H423.845V87.8712H434.696V74.0062H536.775V49.1899H589.321V107.965H581.987V113.29H599.569V126.753H605.698V99.3249H651.914V49.1899H702.15V49.1899Z" stroke="#60558F" stroke-width="2" stroke-miterlimit="10"/>
<path d="M283.287 346.383C284.794 347.387 286.502 351.105 286.502 352.913C286.2 373.711 260.58 399.933 255.758 420.128C254.653 424.75 252.141 443.94 253.748 448.461C254.452 450.47 257.466 454.489 257.466 454.489C257.466 454.489 257.466 468.656 258.169 473.378C259.073 479.205 262.087 490.759 264.499 496.185C268.618 505.327 279.067 525.02 279.067 525.02C279.067 525.02 257.566 540.894 251.639 538.784C242.596 535.569 230.741 527.833 224.913 522.809C217.679 516.58 208.737 502.615 201.202 498.897C197.284 496.988 187.84 498.294 184.022 496.285C175.281 491.764 164.832 473.277 156.392 468.254C155.086 467.45 151.67 467.45 150.364 466.546C147.249 464.536 141.723 458.91 140.819 455.293C140.317 453.183 142.728 447.456 142.326 446.652C141.924 445.949 140.116 442.835 140.116 441.428C140.015 437.409 142.226 428.367 145.742 426.458C146.747 425.955 149.46 427.262 150.263 426.458C158.703 417.315 173.673 404.354 173.673 404.354C173.673 404.354 193.968 392.599 200.197 387.576C205.824 382.954 216.273 372.204 222.1 367.783C230.741 361.252 245.61 349.698 259.877 346.483C261.083 346.081 278.364 343.268 283.287 346.383Z" stroke="#60558F" stroke-width="2" stroke-miterlimit="10"/>
<path d="M651.914 99.325V109.372H626.696V99.325" stroke="#60558F" stroke-miterlimit="10" stroke-dasharray="3 3"/>
<path d="M568.021 164.229L540.492 139.915" stroke="#60558F" stroke-miterlimit="10" stroke-dasharray="3 3"/>
<path d="M626.395 190.753V212.254" stroke="#60558F" stroke-miterlimit="10" stroke-dasharray="3 3"/>
<path d="M414.803 294.439H391.795" stroke="#60558F" stroke-miterlimit="10" stroke-dasharray="3 3"/>
<path d="M414.803 307.3H391.795" stroke="#60558F" stroke-miterlimit="10" stroke-dasharray="3 3"/>
<path d="M379.437 335.231V316.141" stroke="#60558F" stroke-miterlimit="10" stroke-dasharray="3 3"/>
<path d="M367.582 335.231V316.141" stroke="#60558F" stroke-miterlimit="10" stroke-dasharray="3 3"/>
<path d="M618.257 488.448H556.065" stroke="#60558F" stroke-miterlimit="10" stroke-dasharray="3 3"/>
<path d="M641.264 502.212H563.701" stroke="#60558F" stroke-miterlimit="10" stroke-dasharray="3 3"/>
<path d="M475.487 525.723V555.864" stroke="#60558F" stroke-miterlimit="10" stroke-dasharray="3 3"/>
<path d="M445.246 510.049C445.246 511.456 445.246 534.765 445.246 534.765H430.678V510.049" stroke="#60558F" stroke-miterlimit="10" stroke-dasharray="3 3"/>
<path d="M410.181 678.037V641.566H404.857V675.927" stroke="#60558F" stroke-miterlimit="10" stroke-dasharray="3 3"/>
<path d="M404.856 643.575H359.142" stroke="#60558F" stroke-miterlimit="10" stroke-dasharray="3 3"/>
<path d="M683.261 494.678H670.401" stroke="#60558F" stroke-miterlimit="10" stroke-dasharray="3 3"/>
<path d="M683.261 505.126H670.401" stroke="#60558F" stroke-miterlimit="10" stroke-dasharray="3 3"/>
<path d="M728.875 580.882V631.218" stroke="#60558F" stroke-miterlimit="10" stroke-dasharray="3 3"/>
<path d="M747.763 595.35V615.544" stroke="#60558F" stroke-miterlimit="10" stroke-dasharray="3 3"/>
<path d="M791.569 554.96H768.36" stroke="#60558F" stroke-miterlimit="10" stroke-dasharray="3 3"/>
<path d="M795.688 488.448H762.131" stroke="#60558F" stroke-miterlimit="10" stroke-dasharray="3 3"/>
<path d="M409.88 536.875V534.162H430.677" stroke="#60558F" stroke-miterlimit="10" stroke-dasharray="3 3"/>
<path d="M418.721 536.875H446.05V534.765" stroke="#60558F" stroke-miterlimit="10" stroke-dasharray="3 3"/>
<path d="M639.322 222.51V212.966H629.777V222.51H639.322Z" stroke="#60558F" stroke-width="2" stroke-miterlimit="10"/>
<path d="M596.404 222.529V212.281H580.731V222.529H596.404Z" stroke="#60558F" stroke-width="2" stroke-miterlimit="10"/>
<path d="M521.596 192.205V180.149H507.731V192.205H521.596Z" stroke="#60558F" stroke-width="2" stroke-miterlimit="10"/>
<path d="M527.435 299.809V290.164H516.584V299.809H527.435Z" stroke="#60558F" stroke-width="2" stroke-miterlimit="10"/>
<path d="M356.922 215.407V206.063H345.569V215.407H356.922Z" stroke="#60558F" stroke-width="2" stroke-miterlimit="10"/>
<path d="M400.36 391.906V383.165H391.619V391.906H400.36Z" stroke="#60558F" stroke-width="2" stroke-miterlimit="10"/>
<path d="M484.377 555.925V549.294H477.745V555.925H484.377Z" stroke="#60558F" stroke-width="2" stroke-miterlimit="10"/>
<path d="M556.061 486.725V479.089H545.21V486.725H556.061Z" stroke="#60558F" stroke-width="2" stroke-miterlimit="10"/>
<path d="M605.257 551.927V540.875H594.205V551.927H605.257Z" stroke="#60558F" stroke-width="2" stroke-miterlimit="10"/>
<path d="M641.267 488.47V478.222H624.79V488.47H641.267Z" stroke="#60558F" stroke-width="2" stroke-miterlimit="10"/>
<path d="M597.288 630.729V620.581H587.844V630.729H597.288Z" stroke="#60558F" stroke-width="2" stroke-miterlimit="10"/>
<path d="M597.287 640.876V630.728H587.843V640.876H597.287Z" stroke="#60558F" stroke-width="2" stroke-miterlimit="10"/>
<path d="M634.122 641.415V631.87H609.607V641.415H634.122Z" stroke="#60558F" stroke-width="2" stroke-miterlimit="10"/>
<path d="M624.017 482.925V478.203H618.29V482.925H624.017Z" stroke="#60558F" stroke-width="2" stroke-miterlimit="10"/>
<path d="M624.033 488.066V483.344H618.306V488.066H624.033Z" stroke="#60558F" stroke-width="2" stroke-miterlimit="10"/>
<path d="M482.42 379.337C485.472 379.337 487.946 376.863 487.946 373.812C487.946 370.76 485.472 368.286 482.42 368.286C479.368 368.286 476.894 370.76 476.894 373.812C476.894 376.863 479.368 379.337 482.42 379.337Z" stroke="#60558F" stroke-width="2" stroke-miterlimit="10"/>
<path d="M451.877 433.893C453.541 433.893 454.891 432.543 454.891 430.878C454.891 429.214 453.541 427.864 451.877 427.864C450.212 427.864 448.863 429.214 448.863 430.878C448.863 432.543 450.212 433.893 451.877 433.893Z" stroke="#60558F" stroke-width="2" stroke-miterlimit="10"/>
<path d="M371.902 516.479C373.678 516.479 375.117 515.04 375.117 513.264C375.117 511.489 373.678 510.049 371.902 510.049C370.126 510.049 368.687 511.489 368.687 513.264C368.687 515.04 370.126 516.479 371.902 516.479Z" stroke="#60558F" stroke-width="2" stroke-miterlimit="10"/>
<path d="M348.935 589.811V580.467H337.582V589.811H348.935Z" stroke="#60558F" stroke-width="2" stroke-miterlimit="10"/>
<path d="M337.493 589.838V585.316H332.972V589.838H337.493Z" stroke="#60558F" stroke-width="2" stroke-miterlimit="10"/>
<path d="M404.846 666.219V661.396H400.023V666.219H404.846Z" stroke="#60558F" stroke-width="2" stroke-miterlimit="10"/>
<path d="M399.238 666.2V661.377H394.415V666.2H399.238Z" stroke="#60558F" stroke-width="2" stroke-miterlimit="10"/>
<path d="M404.916 675.211V666.27H394.467V675.211H404.916Z" stroke="#60558F" stroke-width="2" stroke-miterlimit="10"/>
<path d="M417.348 694.472V687.941H410.818V694.472H417.348Z" stroke="#60558F" stroke-width="2" stroke-miterlimit="10"/>
<path d="M444.728 621.71V612.969H435.987V621.71H444.728Z" stroke="#60558F" stroke-width="2" stroke-miterlimit="10"/>
<path d="M436.036 618.016V612.992H431.012V618.016H436.036Z" stroke="#60558F" stroke-width="2" stroke-miterlimit="10"/>
<path d="M101.808 404.559V398.029H94.1724V404.559H101.808Z" stroke="#60558F" stroke-width="2" stroke-miterlimit="10"/>
<path d="M393.503 382.552C394.78 382.552 395.814 381.517 395.814 380.241C395.814 378.965 394.78 377.93 393.503 377.93C392.227 377.93 391.193 378.965 391.193 380.241C391.193 381.517 392.227 382.552 393.503 382.552Z" stroke="#60558F" stroke-width="2" stroke-miterlimit="10"/>
<path d="M485.334 384.561C486.776 384.561 487.946 383.392 487.946 381.949C487.946 380.506 486.776 379.337 485.334 379.337C483.891 379.337 482.721 380.506 482.721 381.949C482.721 383.392 483.891 384.561 485.334 384.561Z" stroke="#60558F" stroke-width="2" stroke-miterlimit="10"/>
<path d="M485.434 389.083C486.488 389.083 487.343 388.228 487.343 387.174C487.343 386.119 486.488 385.265 485.434 385.265C484.38 385.265 483.525 386.119 483.525 387.174C483.525 388.228 484.38 389.083 485.434 389.083Z" stroke="#60558F" stroke-width="2" stroke-miterlimit="10"/>
<path d="M860.692 432.988C861.747 432.988 862.601 432.133 862.601 431.079C862.601 430.025 861.747 429.17 860.692 429.17C859.638 429.17 858.784 430.025 858.784 431.079C858.784 432.133 859.638 432.988 860.692 432.988Z" stroke="#60558F" stroke-width="2" stroke-miterlimit="10"/>
<path d="M857.277 435.601C858.331 435.601 859.185 434.746 859.185 433.692C859.185 432.637 858.331 431.783 857.277 431.783C856.222 431.783 855.368 432.637 855.368 433.692C855.368 434.746 856.222 435.601 857.277 435.601Z" stroke="#60558F" stroke-width="2" stroke-miterlimit="10"/>
<path d="M913.741 423.544C914.795 423.544 915.65 422.689 915.65 421.635C915.65 420.581 914.795 419.726 913.741 419.726C912.687 419.726 911.832 420.581 911.832 421.635C911.832 422.689 912.687 423.544 913.741 423.544Z" stroke="#60558F" stroke-width="2" stroke-miterlimit="10"/>
<path d="M917.559 422.438C918.613 422.438 919.468 421.584 919.468 420.53C919.468 419.475 918.613 418.621 917.559 418.621C916.505 418.621 915.65 419.475 915.65 420.53C915.65 421.584 916.505 422.438 917.559 422.438Z" stroke="#60558F" stroke-width="2" stroke-miterlimit="10"/>
<path d="M922.181 420.53C923.235 420.53 924.09 419.675 924.09 418.621C924.09 417.567 923.235 416.712 922.181 416.712C921.126 416.712 920.272 417.567 920.272 418.621C920.272 419.675 921.126 420.53 922.181 420.53Z" stroke="#60558F" stroke-width="2" stroke-miterlimit="10"/>
<path d="M469.962 370.194C471.016 370.194 471.871 369.34 471.871 368.285C471.871 367.231 471.016 366.376 469.962 366.376C468.907 366.376 468.053 367.231 468.053 368.285C468.053 369.34 468.907 370.194 469.962 370.194Z" stroke="#60558F" stroke-width="2" stroke-miterlimit="10"/>
<path d="M475.487 372.405C476.93 372.405 478.1 371.235 478.1 369.792C478.1 368.35 476.93 367.18 475.487 367.18C474.045 367.18 472.875 368.35 472.875 369.792C472.875 371.235 474.045 372.405 475.487 372.405Z" stroke="#60558F" stroke-width="2" stroke-miterlimit="10"/>
<path d="M947.499 352.913C948.554 352.913 949.408 352.058 949.408 351.004C949.408 349.95 948.554 349.095 947.499 349.095C946.445 349.095 945.59 349.95 945.59 351.004C945.59 352.058 946.445 352.913 947.499 352.913Z" stroke="#60558F" stroke-width="2" stroke-miterlimit="10"/>
<path d="M943.28 353.014C944.334 353.014 945.188 352.159 945.188 351.105C945.188 350.05 944.334 349.196 943.28 349.196C942.225 349.196 941.371 350.05 941.371 351.105C941.371 352.159 942.225 353.014 943.28 353.014Z" stroke="#60558F" stroke-width="2" stroke-miterlimit="10"/>
<path d="M938.155 351.607C939.21 351.607 940.064 350.753 940.064 349.698C940.064 348.644 939.21 347.79 938.155 347.79C937.101 347.79 936.247 348.644 936.247 349.698C936.247 350.753 937.101 351.607 938.155 351.607Z" stroke="#60558F" stroke-width="2" stroke-miterlimit="10"/>
<path d="M969 393.604H958.25V407.871H969V393.604Z" stroke="#60558F" stroke-width="2" stroke-miterlimit="10"/>
<path d="M395.111 122.534L403.651 131.074V145.24L395.111 152.976H378.835L369.792 145.24V130.672L379.236 122.534H395.111Z" stroke="#60558F" stroke-width="2" stroke-miterlimit="10"/>
<path d="M394.006 131.174V136.399L397.02 138.71L394.006 141.523V146.044H388.982L386.37 148.556L384.16 145.943H378.935V141.02L375.921 138.509L379.337 136.7V131.174H384.863L387.576 128.16L389.686 131.275L394.006 131.174Z" stroke="#60558F" stroke-width="2" stroke-miterlimit="10"/>
<path d="M386.269 141.724C387.879 141.724 389.183 140.419 389.183 138.81C389.183 137.201 387.879 135.896 386.269 135.896C384.66 135.896 383.356 137.201 383.356 138.81C383.356 140.419 384.66 141.724 386.269 141.724Z" stroke="#60558F" stroke-width="2" stroke-miterlimit="10"/>
<path d="M690.059 139.916V130.874H679.409V139.916H690.059Z" stroke="#60558F" stroke-width="2" stroke-miterlimit="10"/>
<path d="M660.113 536.321V505.275H647.051V536.321H660.113Z" stroke="#60558F" stroke-width="2" stroke-miterlimit="10"/>
<path d="M660.142 546.398V536.351H647.081V546.398H660.142Z" stroke="#60558F" stroke-width="2" stroke-miterlimit="10"/>
<path d="M668.897 582.517V572.972H657.543V582.517H668.897Z" stroke="#60558F" stroke-width="2" stroke-miterlimit="10"/>
<path d="M668.885 592.051V582.506H657.532V592.051H668.885Z" stroke="#60558F" stroke-width="2" stroke-miterlimit="10"/>
<path d="M657.494 582.466V572.921H646.141V582.466H657.494Z" stroke="#60558F" stroke-width="2" stroke-miterlimit="10"/>
<path d="M713.804 156.091H692.504V203.212H713.804V156.091Z" stroke="#60558F" stroke-width="2" stroke-miterlimit="10"/>
<path d="M692.485 192.369V166.548H680.931V192.369H692.485Z" stroke="#60558F" stroke-width="2" stroke-miterlimit="10"/>
<path d="M726.511 203.183V188.815H713.752V203.183H726.511Z" stroke="#60558F" stroke-width="2" stroke-miterlimit="10"/>
<path opacity="0.6" d="M586.809 465.642C588.517 465.642 589.924 464.235 589.924 462.527V409.077V404.656C589.924 402.948 588.517 401.541 586.809 401.541H582.388H557.472C555.764 401.541 554.357 400.135 554.357 398.427V333.925C554.357 332.217 552.95 330.81 551.242 330.81H549.936C548.228 330.81 546.822 332.217 546.822 333.925V401.541V405.962C546.822 407.67 548.228 409.077 549.936 409.077H579.274C580.982 409.077 582.388 410.483 582.388 412.191V462.728C582.388 464.436 583.795 465.843 585.503 465.843H586.809V465.642Z" fill="#555A84"/>
<path opacity="0.6" d="M259.676 37.5354H556.768C558.878 37.5354 560.486 39.2434 560.486 41.2528V59.4381C560.486 61.5479 562.194 61.1461 564.203 61.1461C566.313 61.1461 567.921 61.4475 567.921 59.4381V33.818C567.921 31.7081 566.213 30.1006 564.203 30.1006H252.241C250.131 30.1006 248.524 31.8086 248.524 33.818V37.5354V300.066C248.524 302.176 250.232 303.783 252.241 303.783C254.351 303.783 255.959 302.075 255.959 300.066V41.2528C255.959 39.1429 257.667 37.5354 259.676 37.5354Z" fill="#555A84"/>
<path d="M560.888 43.2623H560.988L560.888 43.3627L555.362 48.8886V54.3141L561.691 48.0849L563.6 46.0755L563.701 45.975L565.61 47.9844L571.94 54.2136V48.7882L566.414 43.2623L563.701 40.5496L560.888 43.2623Z" fill="#82F7E5"/>
<path d="M547.927 347.689L547.826 347.789L542.301 353.315V358.741L548.63 352.411L550.539 350.502L550.64 350.401L552.549 352.411L558.878 358.64V353.215L553.352 347.689L550.64 344.976L547.927 347.689Z" fill="#82F7E5"/>
<path d="M583.192 447.255H583.293H583.192L577.666 452.882V458.307L583.996 451.977L585.905 450.068L586.005 449.968L587.914 451.977L594.244 458.207V452.781L588.718 447.255L586.005 444.542L583.192 447.255Z" fill="#82F7E5"/>
<path d="M511.757 37.8367H517.183L515.274 35.9278L513.265 33.9184V33.8179L515.173 31.909L517.082 30H511.657L510.552 31.2056L507.739 33.9184L510.552 36.6311L511.757 37.8367Z" fill="#82F7E5"/>
<path d="M560.285 60.2419V65.6673L562.194 63.7583L564.203 61.8494V61.7489L566.213 63.7583L568.021 65.5668V60.1414L566.916 59.0362L564.203 56.3235L561.491 59.0362H561.39L560.285 60.2419Z" fill="#82F7E5"/>
<path d="M498.093 37.8367H503.619L501.71 35.9278L499.701 33.9184L499.6 33.8179L501.61 31.909L503.519 30H498.093L496.888 31.2056L494.175 33.9184L496.888 36.6311H496.988L498.093 37.8367Z" fill="#82F7E5"/>
<path d="M485.535 37.8367H490.96L489.051 35.9278L487.142 33.9184L487.042 33.8179L489.051 31.909L490.96 30H485.434L484.329 31.2056L481.616 33.9184L484.329 36.6311H484.429L485.535 37.8367Z" fill="#82F7E5"/>
<path d="M335.029 37.8367H340.455L338.546 35.9278L336.536 33.9184V33.8179L338.445 31.909L340.354 30H334.929L333.723 31.2056L331.01 33.9184L333.723 36.6311H333.824L335.029 37.8367Z" fill="#82F7E5"/>
<path d="M321.365 37.8367H326.791L324.982 35.9278L322.973 33.9184L322.872 33.8179L324.882 31.909L326.791 30H321.265L320.16 31.2056L317.447 33.9184L320.16 36.6311H320.26L321.365 37.8367Z" fill="#82F7E5"/>
<path d="M308.806 37.8367H314.232L312.323 35.9278L310.414 33.9184L310.313 33.8179L312.323 31.909L314.232 30H308.706L307.601 31.2056L304.888 33.9184L307.601 36.6311L308.806 37.8367Z" fill="#82F7E5"/>
<path d="M256.26 158.402V152.976L254.351 154.885L252.342 156.794V156.895L250.332 154.885L248.424 152.976V158.502L249.629 159.607L252.342 162.32L255.055 159.607L256.26 158.402Z" fill="#82F7E5"/>
<path d="M256.26 172.065V166.54L254.351 168.448L252.342 170.458L250.332 168.549L248.424 166.64V172.065L249.629 173.271L252.342 175.984L255.055 173.271V173.171L256.26 172.065Z" fill="#82F7E5"/>
<path d="M256.26 184.625V179.099L254.351 181.008L252.342 183.017V183.117L250.332 181.108L248.424 179.199V184.625L249.629 185.83L252.342 188.543L255.055 185.83V185.73L256.26 184.625Z" fill="#82F7E5"/>
<path d="M582.087 435.701V441.127L583.996 439.218L585.905 437.309L586.005 437.208L587.914 439.218L589.823 441.026V435.601L588.718 434.495L586.005 431.783L583.192 434.495H583.293H583.192L582.087 435.701Z" fill="#82F7E5"/>
<path d="M582.087 423.141V428.567L583.996 426.658L585.905 424.648H586.005L587.914 426.557L589.823 428.466V423.041L588.718 421.835L586.005 419.123L583.192 421.835L583.293 421.936H583.192L582.087 423.141Z" fill="#82F7E5"/>
<path d="M546.621 388.982V394.407L548.429 392.498L550.439 390.489H550.539L552.448 392.398L554.357 394.307V388.881L553.151 387.676L550.439 384.963L547.726 387.676V387.776L546.621 388.982Z" fill="#82F7E5"/>
<path d="M567.619 408.875H573.045L571.136 407.067L569.126 405.058V404.957L571.035 403.048L572.944 401.139H567.519L566.414 402.244L563.6 405.058L566.414 407.77L567.619 408.875Z" fill="#82F7E5"/>
<path d="M546.621 375.318V380.743L548.429 378.834L550.439 376.925L550.539 376.825L552.448 378.834L554.357 380.743V375.217L553.151 374.112L550.439 371.399L547.726 374.112V374.213L546.621 375.318Z" fill="#82F7E5"/>
<path d="M546.621 362.76V368.185L548.429 366.276L550.439 364.267H550.539L552.448 366.176L554.357 368.085V362.659L553.151 361.554L550.439 358.741L547.726 361.554L546.621 362.76Z" fill="#82F7E5"/>
<path opacity="0.6" d="M379.136 746.959V711.694C379.136 709.584 377.428 707.977 375.419 707.977C373.309 707.977 371.701 709.685 371.701 711.694V739.525C371.701 741.635 369.993 743.242 367.984 743.242H255.959C253.849 743.242 252.241 741.534 252.241 739.525V598.665C251.237 599.569 249.931 600.071 248.524 600.071C247.117 600.071 245.811 599.569 244.807 598.665V743.242V746.959C244.807 749.069 246.515 750.677 248.524 750.677H252.241H371.701H375.419C377.528 750.777 379.136 749.069 379.136 746.959Z" fill="#555A84"/>
<path d="M361.956 675.224H390.59" stroke="#E8E8E8" stroke-miterlimit="10" stroke-dasharray="3 3"/>
<path d="M252.342 661.961V656.435L250.433 658.344L248.524 660.353H248.423L246.514 658.444L244.606 656.536V661.961L245.711 663.167L248.423 665.879L251.237 663.167L251.136 663.066H251.237L252.342 661.961Z" fill="#82F7E5"/>
<path d="M252.342 675.525V670.099L250.433 672.008L248.524 673.917L248.423 674.018L246.514 672.008L244.606 670.099V675.625L245.711 676.73L248.423 679.443L251.237 676.73H251.136L251.237 676.63L252.342 675.525Z" fill="#82F7E5"/>
<path d="M252.342 688.084V682.658L250.433 684.567L248.524 686.577H248.423L246.514 684.668L244.606 682.759V688.184L245.711 689.289L248.423 692.102L251.237 689.289H251.136H251.237L252.342 688.084Z" fill="#82F7E5"/>
<path d="M371.299 709.886V715.311L373.208 713.402L375.218 711.393H375.318L377.227 713.302L379.136 715.211V709.786L377.93 708.68L375.218 705.867L372.505 708.68L371.299 709.886Z" fill="#82F7E5"/>
<path d="M296.248 742.94H290.822L292.731 744.849L294.64 746.859H294.74L292.731 748.868L290.822 750.777H296.348L297.453 749.572L300.166 746.859L297.453 744.146H297.353L296.248 742.94Z" fill="#82F7E5"/>
<path d="M309.811 742.94H304.386L306.295 744.849L308.304 746.859L306.395 748.868L304.486 750.777H309.912L311.117 749.572L313.83 746.859L311.117 744.146H311.017L309.811 742.94Z" fill="#82F7E5"/>
<path d="M322.47 742.94H316.945L318.854 744.849L320.863 746.859L318.954 748.868L317.045 750.777H322.47L323.676 749.572L326.389 746.859L323.676 744.146H323.576L322.47 742.94Z" fill="#82F7E5"/>
<path d="M373.61 725.66L373.51 725.76L367.984 731.286V736.712L374.313 730.382L376.222 728.473L376.323 728.373L378.232 730.382L384.561 736.611V731.186L379.036 725.66L376.323 722.947L373.61 725.66Z" fill="#82F7E5"/>
<path opacity="0.6" d="M704.612 607.802V602.683H703.612V592.447H704.612V587.328H703.612V577.091H704.612V571.973H703.612V561.736H704.612V556.618H703.612V546.381H704.612V541.262H703.612V531.025H704.612V525.907H703.612V521.789H699.493V520.789H694.375V521.789H684.138V520.789H679.019V521.789H668.783V520.789H663.664V521.789H653.427V520.789H648.309V521.789H638.072V520.789H632.954V521.789H622.717V520.789H617.598V521.789H613.48V525.907H612.48V531.025H613.48V541.262H612.48V546.381H613.48V556.618H612.48V561.736H613.48V571.973H612.48V577.091H613.48V587.328H612.48V592.447H613.48V602.683H612.48V607.802H613.48V611.92H617.598V612.92H622.717V611.92H632.954V612.92H638.072V611.92H648.309V612.92H653.427V611.92H663.664V612.92H668.783V611.92H679.019V612.92H684.138V611.92H694.375V612.92H699.493V611.92H703.612V607.802H704.612Z" fill="#535895" stroke="white" stroke-width="2" stroke-dasharray="10 5"/>
<path opacity="0.6" d="M750.646 215.13V209.879H749.646V199.376H750.646V194.125H749.646V183.623H750.646V178.371H749.646V167.869H750.646V162.617H749.646V152.115H750.646V146.864H749.646V142.612H745.147V141.612H739.648V142.612H728.649V141.612H723.15V142.612H712.152V141.612H706.653V142.612H695.655V141.612H690.156V142.612H679.157V141.612H673.658V142.612L669.159 142.612V146.864H668.159V152.115L669.159 152.115V162.617H668.159V167.869H669.159V178.371H668.159V183.623H669.159V194.125H668.159V199.376H669.159V209.879H668.159V215.13H669.159V219.381H673.658V220.381H679.157V219.381H690.156V220.381H695.655V219.381H706.653V220.381H712.152V219.381H723.15V220.381H728.649V219.381H739.648V220.381H745.147V219.381H749.646V215.13H750.646Z" fill="#535895" stroke="white" stroke-width="2" stroke-dasharray="10 5"/>
<path d="M686.529 552.82H675.73L673.471 559.312H668.435L678.966 531.433H683.312L693.863 559.312H688.808L686.529 552.82ZM677.089 548.914H685.17L681.13 537.349L677.089 548.914Z" fill="white"/>
<path d="M723.169 180.537V152.658H732.723C735.876 152.658 738.276 153.29 739.923 154.554C741.57 155.817 742.393 157.7 742.393 160.202C742.393 161.479 742.048 162.627 741.359 163.649C740.67 164.67 739.661 165.461 738.334 166.023C739.84 166.431 741.002 167.204 741.818 168.34C742.648 169.463 743.063 170.816 743.063 172.399C743.063 175.016 742.221 177.026 740.536 178.431C738.863 179.835 736.464 180.537 733.336 180.537H723.169ZM728.013 167.957V176.669H733.394C734.913 176.669 736.1 176.292 736.955 175.539C737.81 174.786 738.238 173.739 738.238 172.399C738.238 169.501 736.757 168.021 733.796 167.957H728.013ZM728.013 164.395H732.762C734.268 164.395 735.442 164.057 736.285 163.381C737.14 162.691 737.568 161.721 737.568 160.47C737.568 159.092 737.172 158.096 736.381 157.483C735.602 156.87 734.383 156.564 732.723 156.564H728.013V164.395Z" fill="white"/>
</g>
<defs>
<clipPath id="clip0">
<rect width="1000" height="784" fill="white"/>
</clipPath>
</defs>
</svg>