<svg width="1024" height="1000" viewBox="0 0 1024 1000" fill="none" xmlns="http://www.w3.org/2000/svg">
<g clip-path="url(#clip0)">
<path d="M713.834 948.716L720.794 948.716L720.794 954.06L756.589 954.06L756.589 896.524L766.532 896.524L794.372 896.524L794.372 872.044L794.372 807.053L809.659 807.053L809.659 799.721L816.371 799.721L816.371 842.344L874.909 842.344L874.909 773.253L874.909 722.428L874.909 716.836L874.909 685.272L874.909 653.709L822.212 653.709L822.212 510.803L956.69 510.803L956.69 433.758L791.14 433.758L791.14 433.509L761.56 433.509L761.56 301.415L840.855 301.415L840.855 258.916L815.873 258.916L815.873 145.461L795.242 145.461L795.242 144.715L765.91 144.715L765.91 176.652L714.456 176.652L714.456 86.9315L776.35 86.9315L776.35 21.6919L550.025 21.6919L550.025 70.6527L486.017 70.6527L486.017 53.7525L411.197 53.7525L411.197 54.001L378.758 54.001L378.758 125.702L411.197 125.702L411.197 179.51L397.028 179.51L397.028 154.532L188.973 154.532L188.973 236.423L163.121 236.423L163.121 250.093L163.121 297.935L163.121 374.607L172.318 374.607L172.318 390.886L158.647 390.886L158.647 387.158L53.6249 387.158L53.6249 390.886L53.6249 409.402L49.0262 409.402L49.0262 416.733L53.6249 416.733L53.6249 447.303L51.5119 447.303L51.5119 472.777L46.6648 472.777L46.6648 516.27L53.6249 516.27L63.1949 516.27L167.223 516.27L167.223 607.357L167.223 667.999L167.223 683.657L243.037 683.657L243.037 870.677L265.906 870.677L296.729 870.677L351.415 870.677L351.415 917.65L410.824 917.65L410.824 871.671L539.46 871.671L539.46 842.966L539.46 831.161L539.46 824.202L506.4 824.202L506.4 801.709L612.914 801.709L612.914 870.304L612.292 870.18L566.306 916.531L566.306 954.308L600.485 954.308L600.361 948.965L612.914 948.965L713.834 948.965L713.834 948.716ZM785.05 610.34L785.05 716.96L790.892 716.96L822.088 716.96L837.996 716.96L837.996 722.552L816.246 722.552L816.246 773.377L809.535 773.377L809.535 766.915L794.372 766.915L794.372 738.085L794.123 738.085L794.123 737.712L720.794 737.712L720.794 709.131L766.78 709.131L766.78 610.216L785.05 610.216L785.05 610.34ZM611.049 673.716L612.914 673.716L643.737 673.716L663.374 673.716L663.374 709.131L683.26 710.498L658.527 723.422L580.351 723.422L580.351 768.53L541.2 768.53L541.2 736.967L512.615 736.967L512.615 677.071L555.493 677.319L577.989 689.124L611.174 689.124L611.174 673.716L611.049 673.716ZM646.844 399.958L720.546 399.958L720.546 433.509L707.869 433.509L707.869 485.577L764.046 485.577L785.05 502.726L785.05 511.051L785.05 584.244L698.796 584.244L698.796 584.865L698.796 610.588L698.796 620.033L696.434 620.033L684.006 620.033L643.737 620.033L643.737 548.828L620.619 548.828L612.914 548.828L585.695 548.828L585.695 533.295L615.772 533.295L615.772 447.054L554.996 447.054L554.996 423.195L529.393 423.195L529.393 416.112L562.453 416.112L562.453 359.695L529.393 359.695L529.393 346.026L646.844 346.026L646.844 368.891L646.844 398.218L646.844 399.958ZM765.91 207.345L765.91 229.713L783.683 229.713L783.683 258.791L745.03 258.791L745.03 259.413L720.546 259.413L720.546 368.891L668.967 368.891L668.967 313.841L668.097 313.841L646.844 313.841L620.744 313.841L620.744 298.556L620.744 284.887L620.744 249.72L644.855 249.72L659.77 249.72L714.456 249.72L714.456 207.345L765.91 207.345ZM644.855 86.9315L644.855 176.652L608.812 176.652L608.812 86.9315L644.855 86.9315ZM396.904 212.44L411.073 212.44L411.073 216.417L485.893 216.417L485.893 101.719L550.398 101.719L550.398 176.652L550.398 207.345L550.398 219.026L526.783 219.026L526.783 285.011L459.544 285.011L459.544 313.965L459.171 313.965L459.171 346.15L496.457 346.15L496.457 359.82L496.457 416.112L496.457 423.071L479.306 423.071L443.76 423.071L443.76 403.064L362.725 403.064L362.725 396.478L395.91 396.478L395.91 342.547L362.725 342.547L362.725 314.338L391.808 314.338L391.808 265.253L362.725 265.253L329.292 265.253L310.525 265.253L310.525 250.217L396.904 250.217L396.904 212.44ZM358.748 815.006L344.206 815.006L344.206 799.721L296.729 799.721L296.729 683.533L296.729 676.574L296.729 607.233L211.717 607.233L211.717 515.028L234.213 515.028L234.213 494.897L207.491 494.897L207.491 404.431L207.491 390.886L207.491 374.607L207.491 363.548L207.491 306.012L215.073 298.059L255.715 298.059L255.715 250.217L279.702 250.217L279.702 265.253L279.702 284.142L279.702 314.338L329.292 314.338L329.292 342.547L294.989 342.547L294.989 396.478L329.292 396.478L329.292 403.064L304.311 403.064L304.311 423.071L304.311 467.682L304.311 497.755L360.488 497.755L360.488 578.901L345.947 578.901L310.525 578.901L309.282 578.901L309.282 780.336L310.525 780.336L310.525 781.081L358.748 781.081L358.748 811.899L367.075 811.899L367.075 815.006L358.748 815.006ZM457.431 816.124L457.431 831.036L410.824 831.036L410.824 815.006L387.21 815.006L387.21 811.899L392.802 811.899L392.802 748.648L367.075 748.648L358.748 748.648L345.947 748.648L345.947 603.505L425.241 603.505L425.241 578.901L396.407 578.901L396.407 497.755L443.636 497.755L443.636 467.682L479.182 467.682L479.182 502.601L554.996 502.601L554.996 493.778L556.363 502.228L556.363 533.171L556.363 587.226L571.029 587.226L585.695 587.226L612.914 587.226L612.914 619.784L611.049 619.784L611.049 610.713L470.73 610.713L445.376 634.323L445.376 658.928L445.376 677.071L445.376 698.32L476.571 698.32L476.571 737.215L476.447 737.215L425.117 737.215L425.117 785.182L457.431 816.124ZM713.834 872.044L713.834 806.432L766.532 806.432L766.532 872.044L713.834 872.044Z" fill="#28204A"/>
<path d="M756.837 954.184L756.837 872.666L719.054 872.666L719.054 954.184L756.837 954.184Z" fill="#28204A"/>
<path d="M600.485 954.06L600.485 916.283L566.43 916.283L566.43 954.06L600.485 954.06Z" fill="#28204A"/>
<path d="M681.271 101.719L681.271 75.7476L550.398 75.7476L550.398 101.719L681.271 101.719Z" fill="#28204A"/>
<path d="M72.3919 485.08L72.3919 463.333L49.1504 463.333L49.1504 485.08L72.3919 485.08Z" fill="#28204A"/>
<path d="M65.0591 431.397L65.0591 409.526L51.139 409.526L51.139 431.397L65.0591 431.397Z" fill="#28204A"/>
<path d="M567.425 38.7163L567.425 21.6919L550.398 21.6919L550.398 38.7163L567.425 38.7163Z" stroke="#60558F" stroke-width="2" stroke-miterlimit="10"/>
<path d="M567.425 55.7408L567.425 38.7163L550.398 38.7163L550.398 55.7408L567.425 55.7408Z" stroke="#60558F" stroke-width="2" stroke-miterlimit="10"/>
<path d="M485.52 172.302L485.52 155.278L468.493 155.278L468.493 172.302L485.52 172.302Z" stroke="#60558F" stroke-width="2" stroke-miterlimit="10"/>
<path d="M396.407 70.9012L396.407 53.8767L379.379 53.8767L379.379 70.9012L396.407 70.9012Z" stroke="#60558F" stroke-width="2" stroke-miterlimit="10"/>
<path d="M739.064 276.562L739.064 259.537L722.037 259.537L722.037 276.562L739.064 276.562Z" stroke="#60558F" stroke-width="2" stroke-miterlimit="10"/>
<path d="M757.956 86.9315L757.956 78.4814L751.99 78.4814L751.99 86.9315L757.956 86.9315Z" stroke="#60558F" stroke-width="2" stroke-miterlimit="10"/>
<path d="M766.407 206.227L766.407 229.589L782.813 229.589L782.813 258.916L720.546 258.916L720.546 369.015L668.967 369.015L668.967 313.965L620.619 313.965L620.619 249.844L714.828 249.844L714.828 206.227L766.407 206.227Z" stroke="#60558F" stroke-width="2" stroke-miterlimit="10"/>
<path d="M764.046 484.582L785.05 502.601L785.05 584.616L698.796 584.616L698.796 619.784L643.861 619.784L643.861 548.579L585.819 548.579L585.819 533.792L615.772 533.792L615.772 446.93L557.606 446.93L557.606 470.168L554.996 470.168L554.996 423.071L529.766 423.071L529.766 416.609L562.453 416.609L562.453 359.695L529.766 359.695L529.766 346.026L646.844 346.026L646.844 399.46L720.546 399.46L720.546 430.9L707.868 430.9L707.868 485.452L764.046 484.582Z" stroke="#60558F" stroke-width="2" stroke-miterlimit="10"/>
<path d="M785.05 610.34L785.05 716.96L837.996 716.96L837.996 722.428L816.246 722.428L816.246 773.252L809.783 773.252L809.783 765.921L794.123 765.921L794.123 737.712L720.794 737.712L720.794 710.374L708.366 710.374L708.366 709.131L766.78 709.131L766.78 610.34L785.05 610.34Z" stroke="#60558F" stroke-width="2" stroke-miterlimit="10"/>
<path d="M664.12 673.716L664.12 709.504L682.763 709.504L682.763 711.741L658.527 723.174L580.351 723.174L580.351 768.531L541.076 768.531L541.076 736.967L512.49 736.967L512.49 677.32L555.369 677.32L577.865 689.125L610.801 689.125L610.801 673.716L664.12 673.716Z" stroke="#60558F" stroke-width="2" stroke-miterlimit="10"/>
<path d="M479.182 467.683L479.182 502.601L553.753 502.601L553.753 490.92L556.363 490.92L556.363 587.227L612.914 587.227L612.914 651.721L611.049 651.721L611.049 610.837L470.73 610.837L445.376 634.323L445.376 698.32L476.447 698.32L476.447 737.216L425.117 737.216L425.117 785.182L457.431 816.125L457.431 831.036L410.203 831.036L410.203 815.006L386.837 815.006L386.837 811.899L394.045 811.899L394.045 748.648L346.692 748.648L346.692 604.748L426.111 604.748L426.111 579.895L395.288 579.895L395.288 497.755L443.636 497.755L443.636 467.683L479.182 467.683Z" stroke="#60558F" stroke-width="2" stroke-miterlimit="10"/>
<path d="M486.514 218.032L486.514 101.719L550.273 101.719L550.273 219.151L526.783 219.151L526.783 283.023L559.47 283.023L559.47 285.136L459.047 285.136L459.047 346.026L496.333 346.026L496.333 422.947L444.381 422.947L444.381 402.94L362.725 402.94L362.725 396.478L395.785 396.478L395.785 342.547L363.595 342.547L363.595 314.338L391.808 314.338L391.808 265.253L310.525 265.253L310.525 251.46L396.531 251.46L396.531 211.819L411.072 211.819L411.072 218.032L486.514 218.032Z" stroke="#60558F" stroke-width="2" stroke-miterlimit="10"/>
<path d="M329.168 313.22L329.168 342.05L294.865 342.05L294.865 397.224L329.168 397.224L329.168 403.064L304.186 403.064L304.186 498.376L360.115 498.376L360.115 578.901L310.525 578.901L310.525 781.703L358.748 781.703L358.748 811.899L365.957 811.899L365.957 815.006L344.082 815.006L344.082 799.846L296.605 799.846L296.605 607.358L210.598 607.358L210.598 515.028L234.213 515.028L234.213 495.891L207.491 495.891L207.491 306.012L215.073 297.935L255.714 297.935L255.714 250.093L279.577 250.093L279.577 312.599L329.168 313.22Z" stroke="#60558F" stroke-width="2" stroke-miterlimit="10"/>
<path d="M657.035 21.6919L657.035 64.9365L673.565 64.9365L673.565 22.9346" stroke="#60558F" stroke-width="2" stroke-miterlimit="10"/>
<path d="M550.273 219.151L550.273 248.353L589.672 248.353" stroke="#60558F" stroke-miterlimit="10"/>
<path d="M714.456 235.181L589.672 235.181L589.672 251.46L602.846 251.46L602.846 283.769L552.635 283.769" stroke="#60558F" stroke-miterlimit="10"/>
<path d="M681.271 235.305L681.271 220.021L665.114 220.021L665.114 235.305L681.271 235.305Z" stroke="#60558F" stroke-width="2" stroke-miterlimit="10"/>
<path d="M659.77 148.94L659.77 133.656L644.979 133.656L644.979 148.94L659.77 148.94Z" stroke="#60558F" stroke-width="2" stroke-miterlimit="10"/>
<path d="M644.855 176.652L644.855 101.719L608.812 101.719L608.812 176.652L644.855 176.652Z" stroke="#60558F" stroke-width="2" stroke-miterlimit="10"/>
<path d="M378.634 92.3991C378.634 93.1447 383.357 92.3991 383.357 92.3991L383.357 70.9011" stroke="#60558F" stroke-width="2" stroke-miterlimit="10"/>
<path d="M475.329 178.64C475.329 181.454 477.61 183.735 480.424 183.735C483.239 183.735 485.52 181.454 485.52 178.64C485.52 175.826 483.239 173.545 480.424 173.545C477.61 173.545 475.329 175.826 475.329 178.64Z" stroke="#60558F" stroke-width="2" stroke-miterlimit="10"/>
<path d="M396.158 58.226C396.158 59.6673 397.327 60.8356 398.768 60.8356C400.21 60.8356 401.378 59.6673 401.378 58.226C401.378 56.7848 400.21 55.6165 398.768 55.6165C397.327 55.6165 396.158 56.7848 396.158 58.226Z" stroke="#60558F" stroke-width="2" stroke-miterlimit="10"/>
<path d="M776.35 86.9315L776.35 70.5283L759.944 70.5283L759.944 86.9315L776.35 86.9315Z" stroke="#60558F" stroke-width="2" stroke-miterlimit="10"/>
<path d="M676.548 906.466L676.548 893.045L646.471 893.045L646.471 906.466L676.548 906.466Z" stroke="#60558F" stroke-width="2" stroke-miterlimit="10"/>
<path d="M712.218 872.044L712.218 856.262L696.434 856.262L696.434 872.044L712.218 872.044Z" stroke="#60558F" stroke-width="2" stroke-miterlimit="10"/>
<path d="M661.634 753.122L661.634 738.085L646.595 738.085L646.595 753.122L661.634 753.122Z" stroke="#60558F" stroke-width="2" stroke-miterlimit="10"/>
<path d="M541.076 764.678L541.076 736.967L516.467 736.967L516.467 764.678L541.076 764.678Z" stroke="#60558F" stroke-width="2" stroke-miterlimit="10"/>
<path d="M556.363 631.341L556.363 610.837L541.076 610.837L541.076 631.341L556.363 631.341Z" stroke="#60558F" stroke-width="2" stroke-miterlimit="10"/>
<path d="M584.203 585.114L584.203 575.421L574.509 575.421L574.509 585.114L584.203 585.114Z" stroke="#60558F" stroke-width="2" stroke-miterlimit="10"/>
<path d="M574.385 587.227L574.385 575.421L556.363 575.421L556.363 587.227L574.385 587.227Z" stroke="#60558F" stroke-width="2" stroke-miterlimit="10"/>
<path d="M643.861 587.227L609.061 587.227" stroke="#60558F" stroke-width="2" stroke-miterlimit="10"/>
<path d="M585.819 548.58L556.363 548.58" stroke="#60558F" stroke-width="2" stroke-miterlimit="10"/>
<path d="M725.02 738.085L580.351 738.085" stroke="#60558F" stroke-miterlimit="10"/>
<path d="M700.66 636.436L700.66 619.784L684.005 619.784L684.005 636.436L700.66 636.436Z" stroke="#60558F" stroke-width="2" stroke-miterlimit="10"/>
<path d="M684.005 636.436L684.005 619.784L674.933 619.784L674.933 636.436L684.005 636.436Z" stroke="#60558F" stroke-width="2" stroke-miterlimit="10"/>
<path d="M476.571 673.716L476.571 725.535" stroke="#60558F" stroke-width="2" stroke-miterlimit="10"/>
<path d="M351.291 875.026L351.291 856.014L335.506 856.014L335.506 870.677" stroke="#60558F" stroke-width="2" stroke-miterlimit="10"/>
<path d="M326.06 870.677L326.06 856.014L343.336 856.014" stroke="#60558F" stroke-width="2" stroke-miterlimit="10"/>
<path d="M309.779 870.677L309.779 863.346L272.617 863.346L272.617 871.92" stroke="#60558F" stroke-width="2" stroke-miterlimit="10"/>
<path d="M254.596 870.677L254.596 856.014L242.789 856.014" stroke="#60558F" stroke-width="2" stroke-miterlimit="10"/>
<path d="M296.605 627.116L279.329 627.116L279.329 660.419L296.605 660.419" stroke="#60558F" stroke-width="2" stroke-miterlimit="10"/>
<path d="M296.605 643.768L279.329 643.768" stroke="#60558F" stroke-width="2" stroke-miterlimit="10"/>
<path d="M394.045 781.082L349.302 781.082" stroke="#60558F" stroke-miterlimit="10"/>
<path d="M207.491 154.656L207.491 184.853L206.124 192.061L206.124 198.895L203.017 198.895L203.017 206.724L203.017 215.547L207.491 215.547L207.491 236.424L184.623 236.424" stroke="#60558F" stroke-width="2" stroke-miterlimit="10"/>
<path d="M391.808 274.698L311.768 274.698L311.768 251.46" stroke="#60558F" stroke-miterlimit="10"/>
<path d="M337.495 154.656C337.495 156.893 337.495 187.338 337.495 187.338L346.692 187.338L346.692 180.38L337.495 180.38" stroke="#60558F" stroke-miterlimit="10"/>
<path d="M405.231 180.504L346.692 180.504" stroke="#60558F" stroke-miterlimit="10"/>
<path d="M396.407 380.821L378.634 380.821L378.634 396.478" stroke="#60558F" stroke-width="2" stroke-miterlimit="10"/>
<path d="M408.96 496.512C408.96 495.27 408.96 467.683 408.96 467.683L396.407 467.683L396.407 497.755" stroke="#60558F" stroke-width="2" stroke-miterlimit="10"/>
<path d="M305.056 423.444C305.056 425.709 306.892 427.545 309.158 427.545C311.423 427.545 313.259 425.709 313.259 423.444C313.259 421.179 311.423 419.343 309.158 419.343C306.892 419.343 305.056 421.179 305.056 423.444Z" stroke="#60558F" stroke-width="2" stroke-miterlimit="10"/>
<path d="M304.186 414.621L304.186 409.153C304.186 406.544 306.299 404.431 308.909 404.431L316.118 404.431C318.728 404.431 320.841 406.544 320.841 409.153L320.841 414.621C320.841 417.231 318.728 419.343 316.118 419.343L308.909 419.343C306.423 419.343 304.186 417.231 304.186 414.621Z" stroke="#60558F" stroke-width="2" stroke-miterlimit="10"/>
<path d="M815.873 145.337L815.873 259.164L840.855 259.164L840.855 301.415L761.685 301.415L761.685 433.882L956.69 433.882L956.69 510.927L821.342 510.927L821.342 653.833L874.785 653.833L874.785 842.469L815.873 842.469L815.873 800.094L809.535 800.094L809.535 807.053L794.372 807.053L794.372 896.524L756.837 896.524L756.837 954.06L720.049 954.06L720.049 949.462L600.734 949.462L600.734 954.06L566.306 954.06L566.306 916.656L612.417 869.932L612.417 801.461L506.649 801.461L506.649 824.45L539.46 824.45L539.46 871.547L410.7 871.547L410.7 917.525L351.291 917.525L351.291 870.677L242.789 870.677L242.789 683.657L166.974 683.657L166.974 516.27L46.5404 516.27L46.5404 472.777L49.0261 472.777L49.0261 463.333L51.3876 463.333L51.3876 447.303L54.3705 447.303L54.3705 431.397L51.1391 431.397L51.1391 416.858L48.9018 416.858L48.9018 409.153L53.8733 409.153L53.8733 387.282L158.398 387.282L158.398 391.632L171.448 391.632L171.448 375.477L162.873 375.477L162.873 236.548L189.718 236.548L189.718 154.656L396.904 154.656L396.904 180.504L410.948 180.504L410.948 125.703L378.634 125.703L378.634 53.8768L485.893 53.8768L485.893 70.777L549.9 70.777L549.9 21.6919L776.35 21.6919L776.35 87.5529L715.699 87.5529L715.699 176.9L765.91 176.9L765.91 144.715L815.873 145.337Z" stroke="#60558F" stroke-width="2" stroke-miterlimit="10"/>
<path d="M766.532 806.556L766.532 872.168L712.467 872.168C712.467 872.168 712.964 806.929 712.467 806.556C711.97 806.183 766.532 806.556 766.532 806.556Z" stroke="#60558F" stroke-width="2" stroke-miterlimit="10"/>
<path d="M574.385 346.026L574.385 331.114L559.47 331.114L559.47 346.026L574.385 346.026Z" stroke="#60558F" stroke-width="2" stroke-miterlimit="10"/>
<path d="M565.436 619.908L565.436 610.837L556.363 610.837L556.363 619.908L565.436 619.908Z" stroke="#60558F" stroke-width="2" stroke-miterlimit="10"/>
<path opacity="0.6" d="M613.118 870.645L613.417 870.351L613.417 869.932L613.417 865.976L612.417 865.976L612.417 862.02L613.417 862.02L613.417 854.108L612.417 854.108L612.417 850.153L613.417 850.153L613.417 847.197L617.169 847.197L617.169 846.197L621.921 846.197L621.921 847.197L631.426 847.197L631.426 846.197L636.179 846.197L636.179 847.197L645.684 847.197L645.684 846.197L650.436 846.197L650.436 847.197L659.941 847.197L659.941 846.197L664.694 846.197L664.694 847.197L674.199 847.197L674.199 846.197L678.951 846.197L678.951 847.197L688.456 847.197L688.456 846.197L693.209 846.197L693.209 847.197L702.714 847.197L702.714 846.197L707.466 846.197L707.466 847.197L711.218 847.197L711.218 850.484L712.218 850.484L712.218 854.771L711.218 854.771L711.218 855.262L706.957 855.262L706.957 856.262L701.696 856.262L701.696 855.262L696.434 855.262L695.434 855.262L695.434 856.262L695.434 861.523L696.434 861.523L696.434 866.784L695.434 866.784L695.434 872.044L695.434 873.044L696.434 873.044L701.696 873.044L701.696 872.044L706.957 872.044L706.957 873.044L712.218 873.044L713.218 873.044L713.218 872.92L717.149 872.92L717.149 871.92L722.079 871.92L722.079 872.92L731.939 872.92L731.939 871.92L736.869 871.92L736.869 872.92L746.729 872.92L746.729 871.92L751.659 871.92L751.659 872.92L755.589 872.92L755.589 877.379L756.589 877.379L756.589 882.839L755.589 882.839L755.589 893.758L756.589 893.758L756.589 899.217L755.589 899.217L755.589 910.136L756.589 910.136L756.589 915.595L755.589 915.595L755.589 926.514L756.589 926.514L756.589 931.973L755.589 931.973L755.589 942.892L756.589 942.892L756.589 948.352L755.589 948.352L755.589 952.811L750.623 952.811L750.623 953.811L744.657 953.811L744.657 952.811L732.726 952.811L732.726 953.811L726.76 953.811L726.76 952.811L721.794 952.811L721.794 952.113L720.794 952.113L720.794 950.415L721.794 950.415L721.794 948.716L721.794 947.716L720.794 947.716L715.776 947.716L715.776 948.716L710.758 948.716L710.758 947.716L700.722 947.716L700.722 948.716L695.704 948.716L695.704 947.716L685.668 947.716L685.668 948.716L680.65 948.716L680.65 947.716L670.614 947.716L670.614 948.716L665.596 948.716L665.596 947.716L655.559 947.716L655.559 948.716L650.541 948.716L650.541 947.716L640.505 947.716L640.505 948.716L635.487 948.716L635.487 947.716L625.451 947.716L625.451 948.716L620.433 948.716L620.433 947.716L610.397 947.716L610.397 948.716L605.379 948.716L605.379 947.716L600.361 947.716L599.361 947.716L599.361 948.716L599.361 950.415L600.361 950.415L600.361 952.113L599.361 952.113L599.361 952.811L594.706 952.811L594.706 953.811L589.051 953.811L589.051 952.811L577.741 952.811L577.741 953.811L572.086 953.811L572.086 952.811L567.431 952.811L567.431 949.517L566.431 949.517L566.431 945.223L567.431 945.223L567.431 936.635L566.431 936.635L566.431 932.341L567.431 932.341L567.431 923.753L566.431 923.753L566.431 919.458L567.431 919.458L567.431 915.583L570.964 912.108L570.263 911.395L574.095 907.626L574.796 908.339L582.46 900.8L581.759 900.087L585.591 896.317L586.293 897.03L593.957 889.492L593.256 888.779L597.088 885.009L597.789 885.722L605.453 878.183L604.752 877.47L608.584 873.701L609.286 874.414L613.118 870.645ZM645.595 906.466L645.595 907.466L646.595 907.466L651.608 907.466L651.608 906.466L656.621 906.466L656.621 907.466L666.647 907.466L666.647 906.466L671.66 906.466L671.66 907.466L676.673 907.466L677.673 907.466L677.673 906.466L677.673 901.992L676.673 901.992L676.673 897.519L677.673 897.519L677.673 893.045L677.673 892.045L676.673 892.045L671.66 892.045L671.66 893.045L666.647 893.045L666.647 892.045L656.621 892.045L656.621 893.045L651.608 893.045L651.608 892.045L646.595 892.045L645.595 892.045L645.595 893.045L645.595 897.519L646.595 897.519L646.595 901.992L645.595 901.992L645.595 906.466Z" fill="#535895" stroke="white" stroke-width="2" stroke-dasharray="10 5"/>
<path opacity="0.6" d="M666.357 220.015L665.357 220.015L665.357 221.015L665.357 225.695L666.357 225.695L666.357 230.376L665.357 230.376L665.357 234.057L660.867 234.057L660.867 235.057L655.378 235.057L655.378 234.057L644.399 234.057L644.399 235.057L638.91 235.057L638.91 234.057L634.421 234.057L634.421 230.179L633.421 230.179L633.421 225.302L634.421 225.302L634.421 215.547L633.421 215.547L633.421 210.669L634.421 210.669L634.421 200.915L633.421 200.915L633.421 196.037L634.421 196.037L634.421 186.282L633.421 186.282L633.421 181.405L634.421 181.405L634.421 177.527L637.356 177.527L637.356 176.527L641.292 176.527L641.292 177.527L645.228 177.527L646.228 177.527L646.228 176.527L646.228 171.65L645.228 171.65L645.228 166.772L646.228 166.772L646.228 157.018L645.228 157.018L645.228 152.14L646.228 152.14L646.228 142.385L645.228 142.385L645.228 137.508L646.228 137.508L646.228 127.753L645.228 127.753L645.228 122.875L646.228 122.875L646.228 118.998L649.893 118.998L649.893 117.998L654.558 117.998L654.558 118.998L663.887 118.998L663.887 117.998L668.552 117.998L668.552 118.998L677.882 118.998L677.882 117.998L682.547 117.998L682.547 118.998L691.877 118.998L691.877 117.998L696.542 117.998L696.542 118.998L705.871 118.998L705.871 117.998L710.536 117.998L710.536 118.998L714.201 118.998L714.201 122.875L715.201 122.875L715.201 127.753L714.201 127.753L714.201 137.508L715.201 137.508L715.201 142.385L714.201 142.385L714.201 152.14L715.201 152.14L715.201 157.018L714.201 157.018L714.201 166.772L715.201 166.772L715.201 171.65L714.201 171.65L714.201 181.405L715.201 181.405L715.201 186.282L714.201 186.282L714.201 196.037L715.201 196.037L715.201 200.915L714.201 200.915L714.201 210.669L715.201 210.669L715.201 215.547L714.201 215.547L714.201 225.302L715.201 225.302L715.201 230.179L714.201 230.179L714.201 234.057L709.442 234.057L709.442 235.057L703.684 235.057L703.684 234.057L692.167 234.057L692.167 235.057L686.408 235.057L686.408 234.057L681.649 234.057L681.649 230.376L680.649 230.376L680.649 225.695L681.649 225.695L681.649 221.015L681.649 220.015L680.649 220.015L675.885 220.015L675.885 221.015L671.121 221.015L671.121 220.015L666.357 220.015Z" fill="#535895" stroke="white" stroke-width="2" stroke-dasharray="10 5"/>
<path d="M707.913 914.477L697.114 914.477L694.855 920.968L689.819 920.968L700.35 893.089L704.697 893.089L715.247 920.968L710.192 920.968L707.913 914.477ZM698.474 910.571L706.554 910.571L702.514 899.005L698.474 910.571Z" fill="white"/>
<path d="M668.953 186.699L668.953 158.821L678.508 158.821C681.661 158.821 684.061 159.452 685.708 160.716C687.354 161.98 688.178 163.863 688.178 166.365C688.178 167.641 687.833 168.79 687.144 169.811C686.454 170.832 685.446 171.624 684.118 172.186C685.625 172.594 686.786 173.366 687.603 174.502C688.433 175.626 688.848 176.979 688.848 178.562C688.848 181.179 688.005 183.189 686.32 184.593C684.648 185.997 682.248 186.699 679.121 186.699L668.953 186.699ZM673.798 174.119L673.798 182.832L679.178 182.832C680.697 182.832 681.884 182.455 682.74 181.702C683.595 180.949 684.023 179.902 684.023 178.562C684.023 175.664 682.542 174.183 679.58 174.119L673.798 174.119ZM673.798 170.558L678.546 170.558C680.053 170.558 681.227 170.22 682.07 169.543C682.925 168.854 683.352 167.884 683.352 166.633C683.352 165.254 682.957 164.258 682.165 163.646C681.387 163.033 680.168 162.727 678.508 162.727L673.798 162.727L673.798 170.558Z" fill="white"/>
</g>
<defs>
<clipPath id="clip0">
<rect width="1024" height="1000" fill="white"/>
</clipPath>
</defs>
</svg>