<svg width="1000" height="882" viewBox="0 0 1000 882" fill="none" xmlns="http://www.w3.org/2000/svg">
<path d="M251.384 202.296L251.294 166.769L215.783 166.858L215.872 202.385L251.384 202.296Z" fill="#28204A"/>
<path d="M668.775 739.136L668.992 820.372H690.429L689.996 759.608L689.021 740.544L668.775 739.136Z" fill="#28204A"/>
<path d="M716.446 836.025L716.249 758.038L690.265 758.104L690.462 836.09L716.446 836.025Z" fill="#28204A"/>
<path d="M776.472 783.947L776.406 757.843L690.334 758.061L690.4 784.165L776.472 783.947Z" fill="#28204A"/>
<path d="M750.829 806.742L750.763 780.638L664.691 780.856L664.757 806.96L750.829 806.742Z" fill="#28204A"/>
<path d="M733.569 820.92L733.503 794.816L647.43 795.033L647.496 821.137L733.569 820.92Z" fill="#28204A"/>
<path d="M385.484 467.471L385.341 410.823L328.717 410.966L328.86 467.614L385.484 467.471Z" fill="#28204A"/>
<path d="M968.892 539.729L950.703 520.449V512.542L931.323 498.136L899.926 498.244L893.971 493.587L867.337 493.695V472.79V470.299L867.121 391.338L792.2 391.554L791.983 308.369L791.875 282.156L734.494 282.265L734.277 178.933L697.141 179.041L696.6 30.2166L593.205 30.4332L593.313 53.3959L504.859 53.6125L504.967 88.2732L428.856 88.4898V95.5303L401.248 95.6386H387.065H370.608L370.5 61.1946L347.114 61.3029H326.652L267.863 61.4112L268.079 179.691L299.477 179.582V188.248L216.111 188.464L216.219 248.254H216.003L216.219 316.817L164.468 316.926V316.276L89.98 316.492L57.0668 366.1L57.2833 460.984L96.1512 519.907L128.09 520.665L140.757 512.758L156.239 519.799H164.901L164.792 468.566L224.015 468.458L224.339 603.309L294.388 603.093L335.53 602.984L335.421 572.765H341.051L341.159 598.76L390.096 598.652V608.942L351.445 609.05L351.553 638.837V645.119L351.661 676.747H372.557L372.665 698.193H373.964L424.417 785.386L424.633 852L484.505 851.892L484.397 822.213L550.007 821.997L550.115 851.133L572.201 851.025V850.7L683.825 850.484L684.583 820.914L689.13 740.544H698.224L727.781 740.436H743.155L743.047 696.352H727.673L727.565 645.011L757.771 644.902V646.31H758.421L758.745 783.978L794.365 783.87L794.04 646.202L823.489 646.094V646.527L867.77 646.419L867.662 592.586L899.06 592.478L899.601 587.062L934.679 586.954L944.965 579.047H951.569L963.587 569.299L960.555 563.883L968.892 539.729ZM593.638 200.271L593.746 222.908L698.224 222.692L698.332 260.385L616.591 260.602V267.426H611.719V261.577L579.239 261.685L579.347 298.187H573.717L573.609 275.766H555.312L555.095 200.379L593.638 200.271ZM543.944 371.733L544.052 423.94H534.416L534.308 371.516L491.109 371.624L491.218 402.494L429.614 402.602L429.505 356.46L459.712 356.352L459.82 334.906H463.285L452.35 318.442L455.923 315.626L468.915 334.148L469.023 356.352L573.934 356.135L574.475 334.581H579.563L579.672 356.135L612.152 356.027L611.935 282.048H616.807V291.363L617.024 356.244H631.532V371.516L543.944 371.733ZM347.655 252.045L347.547 188.139H326.976V179.474H347.439L347.331 127.483L370.716 127.375H387.173L387.281 163.985L437.301 163.877L437.192 127.267L505.076 127.05L505.292 200.487L530.302 200.379L530.518 275.766L468.915 275.874L468.59 297.212L477.468 313.784H471.513L463.718 298.079H459.82L459.712 276.091L306.947 276.524L307.164 350.936H297.636L297.528 315.084L267.863 315.192L267.754 252.045H347.655ZM164.792 442.787L164.576 342.921L216.328 342.813H223.581H232.026L232.243 442.679L164.792 442.787ZM485.155 786.686L484.288 785.278V785.17H484.18L431.562 696.135L431.454 644.902L453.974 644.794L453.865 608.725L417.596 608.834V598.544H428.314L428.206 566.049H434.486V577.097L506.808 576.881L506.916 599.302L528.786 599.193V608.509H518.609L518.717 636.562H521.424L521.641 711.299L492.733 711.408L492.842 770.331L551.631 770.222V786.578L485.155 786.686ZM668.667 696.46V661.691L566.247 661.908L566.355 696.677V698.193H550.331L550.115 636.454H564.298L564.19 608.4H542.861V599.085L565.705 598.977L565.489 527.489L507.674 527.598V542.003L434.269 542.22V554.351H427.99L427.881 521.532L340.835 521.749L340.943 549.585H335.313V548.611H332.931V541.462L313.551 521.857L294.172 522.723V503.985H299.585V511.242L330.224 511.134H337.045L359.673 511.025L359.348 394.154L329.791 394.262L330.008 482.755L299.368 482.864V491.312H293.955L293.847 468.133L267.105 468.241L266.997 410.509L297.203 410.401L297.095 379.856H306.622H311.927L339.752 379.748L341.701 377.04H348.63V364.042H364.978L365.086 402.819L365.195 449.936H364.437L364.545 511.242L430.913 511.025L430.805 473.332L533.875 473.115V451.994H543.944L544.16 519.366L602.3 519.257V534.096H588.983L589.199 601.252V612.949L589.307 645.444L697.791 645.119L697.899 696.46H668.667ZM757.446 554.784L757.555 600.71L647.014 601.035L646.797 533.88H631.64V521.207L661.413 521.099H663.579L690.104 494.453V474.523L733.628 474.415L733.519 415.167L687.939 415.275V398.703L661.089 371.949V371.408V356.135H674.839L674.73 312.593L698.441 312.485L734.494 312.376L756.472 312.268L756.905 473.115L792.308 473.007V472.79L822.948 472.682L823.164 554.46L757.446 554.784Z" fill="#28204A"/>
<path d="M756.905 312.376L674.73 312.593L674.839 356.136H660.98V371.841L687.939 398.703V415.275L733.519 415.167L733.628 474.415L690.104 474.524V494.453L663.579 521.099L631.532 521.207V533.88H646.689L646.906 601.035L757.446 600.71C757.446 598.869 757.338 554.785 757.338 554.785L822.623 554.568L822.406 473.007L756.58 473.224L756.905 312.376Z" stroke="#60558F" stroke-width="2" stroke-miterlimit="10"/>
<path d="M758.312 644.902H727.456L727.673 696.352L743.047 696.244L743.155 740.436L689.021 740.544L689.13 758.091L758.637 757.875L758.312 644.902Z" stroke="#60558F" stroke-width="2" stroke-miterlimit="10"/>
<path d="M611.719 261.577V267.751H617.132V260.494L696.925 260.277L696.817 222.584L593.638 222.908V209.802V200.162L555.203 200.271L555.312 275.766H573.717V298.079H579.563L579.455 261.035L611.719 261.577Z" stroke="#60558F" stroke-width="2" stroke-miterlimit="10"/>
<path d="M616.807 282.048H610.961L611.177 356.027L579.563 356.136L579.455 334.581H574.367L574.475 356.136C574.475 356.136 469.131 356.569 468.915 356.352C468.698 356.136 468.806 334.148 468.806 334.148L455.814 315.626L452.241 318.442L463.176 334.906H459.712L459.82 356.352L429.614 356.461L429.722 402.278L491.109 402.169L491.001 371.733L534.2 371.625L534.308 423.832H543.727L543.619 371.625L631.207 371.408V355.919H616.483L616.807 282.048Z" stroke="#60558F" stroke-width="2" stroke-miterlimit="10"/>
<path d="M544.485 451.994H534.524V473.765L431.238 473.982L431.346 511.459L365.844 511.675L365.628 467.483H360.214L360.323 511.675L299.91 511.784V504.202L294.496 504.31V522.074H313.876L333.256 541.679V549.477H340.835L340.726 521.965L428.098 521.749V554.46L433.836 554.352V542.329L507.891 542.112V527.923L565.597 527.814L565.705 599.952L543.077 600.06V608.509H564.19L564.298 637.212H549.465L549.682 697.652H566.03L565.922 662.016L668.667 661.691V697.327H698.008L697.899 645.011L589.416 645.336L589.091 534.313H602.408V519.258L544.81 519.366L544.485 451.994Z" stroke="#60558F" stroke-width="2" stroke-miterlimit="10"/>
<path d="M552.172 770.331V786.686L484.722 786.795L431.562 697.977L431.346 644.902L453.974 644.794L453.865 608.942L416.838 609.05L416.73 598.977H429.072L428.964 566.049H434.377L434.486 577.206L506.808 576.989V599.302H528.786V608.509L518.501 608.617L518.609 637.754H521.316L521.532 712.166L492.625 712.274L492.733 770.006L552.172 770.331Z" stroke="#60558F" stroke-width="2" stroke-miterlimit="10"/>
<path d="M359.781 394.371V410.401H365.52L365.411 364.151H349.063L349.171 377.149H342.242V379.857L297.744 380.073L297.853 410.51L267.646 410.618L267.754 468.35L294.388 468.241V490.662H299.91L299.802 482.539L329.142 482.431L328.925 394.371H359.781Z" stroke="#60558F" stroke-width="2" stroke-miterlimit="10"/>
<path d="M459.495 276.199L459.604 298.295H463.501L471.405 314.001H477.251L468.373 297.429V276.308C468.373 276.308 529.869 276.416 529.652 276.199C529.436 275.983 529.436 200.379 529.436 200.379L505.617 200.487L505.509 156.511L505.401 127.158L437.409 127.375L437.517 163.985L387.498 164.094L387.39 127.483L347.547 127.591L347.656 179.582H326.652V188.248L348.089 188.139L348.305 253.02L267.646 253.236L267.754 314.651L297.203 314.543L297.311 351.261H307.164L306.947 276.849L459.495 276.199Z" stroke="#60558F" stroke-width="2" stroke-miterlimit="10"/>
<path d="M232.442 342.729L164.775 342.9L165.028 442.766L232.694 442.595L232.442 342.729Z" stroke="#60558F" stroke-width="2" stroke-miterlimit="10"/>
<path d="M637.378 222.8V210.127L593.638 210.236" stroke="#60558F" stroke-width="2" stroke-miterlimit="10"/>
<path d="M505.401 143.947L519.151 143.839V156.945L505.401 157.053" stroke="#60558F" stroke-width="2" stroke-miterlimit="10"/>
<path d="M437.301 129H435.677" stroke="#60558F" stroke-miterlimit="10"/>
<path d="M432.645 129L390.529 129.108" stroke="#60558F" stroke-miterlimit="10" stroke-dasharray="2.88 2.88"/>
<path d="M389.014 129.108H387.39" stroke="#60558F" stroke-miterlimit="10"/>
<path d="M348.071 201.914L348.036 188.05L334.178 188.085L334.213 201.949L348.071 201.914Z" stroke="#60558F" stroke-width="2" stroke-miterlimit="10"/>
<path d="M267.233 268.858L267.198 254.993L253.34 255.028L253.375 268.893L267.233 268.858Z" stroke="#60558F" stroke-width="2" stroke-miterlimit="10"/>
<path d="M296.549 329.169L296.514 315.305L282.656 315.34L282.691 329.204L296.549 329.169Z" stroke="#60558F" stroke-width="2" stroke-miterlimit="10"/>
<path d="M348.089 208.827H342.242V202.004" stroke="#60558F" stroke-width="2" stroke-miterlimit="10"/>
<path d="M297.636 336.53L290.707 336.639V329.165" stroke="#60558F" stroke-width="2" stroke-miterlimit="10"/>
<path d="M401.939 291.947L401.9 276.458L386.417 276.497L386.456 291.986L401.939 291.947Z" stroke="#60558F" stroke-width="2" stroke-miterlimit="10"/>
<path d="M395.054 299.453L395.035 291.979L386.374 292.001L386.393 299.475L395.054 299.453Z" stroke="#60558F" stroke-width="2" stroke-miterlimit="10"/>
<path d="M447.496 473.887L447.465 461.647L432.957 461.684L432.988 473.924L447.496 473.887Z" stroke="#60558F" stroke-width="2" stroke-miterlimit="10"/>
<path d="M388.033 542.675L387.981 521.878L373.473 521.915L373.525 542.711L388.033 542.675Z" stroke="#60558F" stroke-width="2" stroke-miterlimit="10"/>
<path d="M353.932 598.704L353.904 587.439L341.453 587.471L341.482 598.736L353.932 598.704Z" stroke="#60558F" stroke-width="2" stroke-miterlimit="10"/>
<path d="M238.875 484.34L238.839 469.826L225.738 469.859L225.775 484.373L238.875 484.34Z" stroke="#60558F" stroke-width="2" stroke-miterlimit="10"/>
<path d="M373.897 675.968L373.87 665.137L351.675 665.193L351.702 676.024L373.897 675.968Z" stroke="#60558F" stroke-width="2" stroke-miterlimit="10"/>
<path d="M366.203 665.262L366.191 660.388L351.683 660.424L351.695 665.298L366.203 665.262Z" stroke="#60558F" stroke-width="2" stroke-miterlimit="10"/>
<path d="M566.506 770.323L566.474 757.434L551.317 757.472L551.349 770.361L566.506 770.323Z" stroke="#60558F" stroke-width="2" stroke-miterlimit="10"/>
<path d="M551.331 770.309L551.298 757.419L536.141 757.458L536.174 770.347L551.331 770.309Z" stroke="#60558F" stroke-width="2" stroke-miterlimit="10"/>
<path d="M566.468 786.562L566.427 770.315L551.269 770.353L551.31 786.6L566.468 786.562Z" stroke="#60558F" stroke-width="2" stroke-miterlimit="10"/>
<path d="M565.961 711.333L565.926 697.686L550.877 697.724L550.912 711.371L565.961 711.333Z" stroke="#60558F" stroke-width="2" stroke-miterlimit="10"/>
<path d="M743.127 740.449L743.094 727.56L730.211 727.593L730.243 740.482L743.127 740.449Z" stroke="#60558F" stroke-width="2" stroke-miterlimit="10"/>
<path d="M680.119 615.535L680.083 601.346L665.9 601.382L665.936 615.571L680.119 615.535Z" stroke="#60558F" stroke-width="2" stroke-miterlimit="10"/>
<path d="M688.703 608.353L688.686 601.312L680.024 601.334L680.042 608.375L688.703 608.353Z" stroke="#60558F" stroke-width="2" stroke-miterlimit="10"/>
<path d="M694.805 460.397L694.729 430.394L689.64 430.407L689.716 460.41L694.805 460.397Z" stroke="#60558F" stroke-width="2" stroke-miterlimit="10"/>
<path d="M608.434 386.749L608.396 371.802L543.76 371.965L543.798 386.913L608.434 386.749Z" stroke="#60558F" stroke-width="2" stroke-miterlimit="10"/>
<path d="M556.51 519.346L556.476 505.699L544.675 505.729L544.709 519.376L556.51 519.346Z" stroke="#60558F" stroke-width="2" stroke-miterlimit="10"/>
<path d="M564.173 519.282L564.157 513.325L558.203 513.34L558.218 519.298L564.173 519.282Z" stroke="#60558F" stroke-width="2" stroke-miterlimit="10"/>
<path d="M516.035 356.442L516.002 343.444L501.061 343.482L501.094 356.479L516.035 356.442Z" stroke="#60558F" stroke-width="2" stroke-miterlimit="10"/>
<path d="M364.582 364.075L364.549 350.969L349.067 351.008L349.1 364.114L364.582 364.075Z" stroke="#60558F" stroke-width="2" stroke-miterlimit="10"/>
<path d="M349.083 377.174L349.017 351.07L342.088 351.087L342.154 377.191L349.083 377.174Z" stroke="#60558F" stroke-width="2" stroke-miterlimit="10"/>
<path d="M564.247 543.165L564.21 528.435L550.893 528.468L550.93 543.199L564.247 543.165Z" stroke="#60558F" stroke-width="2" stroke-miterlimit="10"/>
<path d="M565.634 550.912L565.614 543.222L555.654 543.247L555.673 550.937L565.634 550.912Z" stroke="#60558F" stroke-width="2" stroke-miterlimit="10"/>
<path d="M424.24 784.77L438.566 776.447L430.247 762.116L415.922 770.438L424.24 784.77Z" stroke="#60558F" stroke-width="2" stroke-miterlimit="10"/>
<path d="M431.346 647.069L372.557 647.285L372.665 665.482" stroke="#60558F" stroke-miterlimit="10" stroke-dasharray="3 3"/>
<path d="M224.448 520.449H247.4L247.509 582.08L335.746 581.863" stroke="#60558F" stroke-miterlimit="10" stroke-dasharray="3 3"/>
<path d="M335.746 590.312L237.331 590.528L237.115 531.063H224.448" stroke="#60558F" stroke-miterlimit="10" stroke-dasharray="3 3"/>
<path d="M266.563 442.462L232.676 442.57" stroke="#60558F" stroke-miterlimit="10" stroke-dasharray="3 3"/>
<path d="M164.792 349.636L164.684 315.842" stroke="#60558F" stroke-miterlimit="10" stroke-dasharray="3 3"/>
<path d="M361.947 410.401L362.055 467.483" stroke="#60558F" stroke-miterlimit="10" stroke-dasharray="3 3"/>
<path d="M365.52 410.401L387.714 410.293L387.823 469.433L365.736 469.541" stroke="#60558F" stroke-miterlimit="10" stroke-dasharray="3 3"/>
<path d="M362.163 417.008H380.46L380.569 462.934H362.055" stroke="#60558F" stroke-miterlimit="10" stroke-dasharray="3 3"/>
<path d="M491.218 402.277L491.434 473.873" stroke="#60558F" stroke-miterlimit="10" stroke-dasharray="3 3"/>
<path d="M549.682 697.651L521.532 697.76" stroke="#60558F" stroke-miterlimit="10" stroke-dasharray="3 3"/>
<path d="M728.106 415.167L728.322 474.415" stroke="#60558F" stroke-miterlimit="10" stroke-dasharray="3 3"/>
<path d="M793.932 646.635H758.312" stroke="#60558F" stroke-miterlimit="10" stroke-dasharray="3 3"/>
<path d="M794.257 756.792L758.637 756.9" stroke="#60558F" stroke-miterlimit="10" stroke-dasharray="3 3"/>
<path d="M579.627 298.055L560.031 298.105L560.123 334.607L579.72 334.557L579.627 298.055Z" stroke="#60558F" stroke-miterlimit="10" stroke-dasharray="3 3"/>
<path d="M578.264 306.202H566.463L566.571 328.515H578.372" stroke="#60558F" stroke-miterlimit="10" stroke-dasharray="3 3"/>
<path d="M750.842 783.979H716.954L717.063 820.914H690.429L690.321 758.091" stroke="#60558F" stroke-miterlimit="10"/>
<path d="M734.151 193.416L734.113 178.252L718.955 178.29L718.994 193.454L734.151 193.416Z" stroke="#60558F" stroke-width="2" stroke-miterlimit="10"/>
<path d="M637.919 409.643L638.028 480.914L601.325 481.022L601.217 457.301L588.008 457.409V433.147L601.217 433.039L601.109 409.751L637.919 409.643Z" stroke="#60558F" stroke-width="2" stroke-miterlimit="10"/>
<path d="M683.916 850.512L683.879 836.106L664.716 836.155L664.752 850.561L683.916 850.512Z" stroke="#60558F" stroke-width="2" stroke-miterlimit="10"/>
<path d="M626.768 733.179C627.418 734.045 642.9 792.968 642.9 792.968L623.303 799.034L605.981 738.594L626.768 733.179Z" stroke="#60558F" stroke-width="2" stroke-miterlimit="10"/>
<path d="M592.989 44.1892L593.097 77.6585L639.002 77.4418L638.894 30.325V37.1488H653.402V30.325" stroke="#60558F" stroke-width="2" stroke-miterlimit="10"/>
<path d="M623.569 179.103L623.422 121.046L608.698 121.083L608.844 179.14L623.569 179.103Z" stroke="#60558F" stroke-width="2" stroke-miterlimit="10"/>
<path d="M608.91 179.119L608.875 165.038L593.392 165.077L593.428 179.158L608.91 179.119Z" stroke="#60558F" stroke-width="2" stroke-miterlimit="10"/>
<path d="M694.74 113.017L694.7 97.095L683.007 97.1245L683.047 113.047L694.74 113.017Z" stroke="#60558F" stroke-width="2" stroke-miterlimit="10"/>
<path d="M504.859 53.6125C504.859 55.9955 504.967 88.7065 504.967 88.7065L427.665 88.9231L427.123 95.5303L370.933 95.6386L370.825 61.1946L268.079 61.4112L268.404 179.258L299.801 179.149L299.693 187.165L251.514 187.489V166.585L216.436 166.693L216.761 316.059L90.413 316.384L57.2833 365.992L57.4999 460.876L96.9091 520.665L128.306 520.557L140.974 512.65L154.291 519.257H164.576L164.468 469.108L224.339 468.999L224.664 603.201L335.854 602.876L335.746 572.007H341.159L341.268 598.652L390.204 598.544V608.834L351.553 608.942L351.77 676.097L373.531 675.989V697.11L424.525 785.278L424.742 851.892L484.613 851.783L484.505 822.105L549.79 821.888L549.898 851.458L684.041 851.133L683.933 820.264H690.537V835.969L716.521 835.861V820.697H732.87V806.183H750.95L750.842 783.762L794.365 783.653L794.04 646.419L867.77 646.202L867.662 592.37L899.059 592.261L899.601 586.846L934.679 586.737L944.965 578.83H951.569L963.587 569.082L960.555 563.666L969 539.512L950.811 520.232V512.325L931.323 498.136L899.926 498.244L894.512 494.02L867.337 494.128L867.121 391.338L792.2 391.554L791.875 282.156L734.494 282.265L734.277 178.283L696.817 178.391L696.275 30.2166L592.989 30.4332L593.097 54.5874L504.859 53.6125Z" stroke="#60558F" stroke-width="2" stroke-miterlimit="10"/>
<path opacity="0.6" d="M603.186 179.129L598.304 179.139L598.302 178.139L594.419 178.147L594.406 174.324L593.406 174.327L593.391 169.504L594.391 169.501L594.36 159.856L593.36 159.859L593.344 155.036L594.344 155.033L594.313 145.388L593.313 145.391L593.298 140.569L594.298 140.565L594.267 130.92L593.267 130.923L593.252 126.101L594.252 126.098L594.221 116.453L593.221 116.456L593.205 111.633L594.205 111.63L594.174 101.985L593.174 101.988L593.159 97.1654L594.159 97.1622L594.128 87.517L593.128 87.5202L593.112 82.6977L594.112 82.6944L594.1 78.8657L598.207 78.8269L598.197 77.8269L603.298 77.7788L603.308 78.7788L613.509 78.6825L613.499 77.6825L618.6 77.6344L618.609 78.6343L628.81 78.5381L628.801 77.5381L633.902 77.49L633.911 78.4899L639.012 78.4418L640.007 78.4324L640.002 77.4373L639.978 72.178L638.978 72.1825L638.954 66.9233L639.954 66.9187L639.906 56.4001L638.906 56.4047L638.882 51.1454L639.882 51.1409L639.834 40.6223L638.834 40.6269L638.81 35.3676L639.81 35.363L639.79 31.1064L643.524 31.0993L643.522 30.0993L648.259 30.0903L648.261 31.0903L657.734 31.0722L657.732 30.0722L662.469 30.0632L662.471 31.0632L671.944 31.0451L671.942 30.0451L676.679 30.0361L676.681 31.0361L686.154 31.018L686.152 30.0181L690.889 30.009L690.891 31.009L694.628 31.0019L694.637 34.9666L695.637 34.9644L695.647 39.9288L694.647 39.931L694.669 49.8599L695.669 49.8577L695.68 54.8221L694.68 54.8243L694.702 64.7531L695.702 64.751L695.712 69.7154L694.712 69.7176L694.734 79.6464L695.734 79.6442L695.745 84.6086L694.745 84.6108L694.767 94.5397L695.767 94.5375L695.777 99.5019L694.777 99.5041L694.799 109.433L695.799 109.431L695.81 114.395L694.81 114.397L694.831 124.326L695.831 124.324L695.842 129.288L694.842 129.291L694.864 139.219L695.864 139.217L695.875 144.182L694.875 144.184L694.896 154.113L695.896 154.111L695.907 159.075L694.907 159.077L694.929 169.006L695.929 169.004L695.94 173.968L694.94 173.97L694.948 177.935L691.066 177.943L691.068 178.943L686.186 178.953L686.184 177.953L676.419 177.974L676.421 178.974L671.539 178.984L671.537 177.984L661.772 178.005L661.774 179.005L656.892 179.015L656.89 178.015L647.125 178.036L647.127 179.036L642.245 179.046L642.243 178.046L632.478 178.067L632.48 179.067L627.598 179.077L627.596 178.077L617.831 178.098L617.833 179.098L612.951 179.108L612.949 178.108L603.184 178.129L603.186 179.129Z" fill="#535895" stroke="white" stroke-width="2" stroke-dasharray="10 5"/>
<path opacity="0.6" d="M684.291 845.373L684.277 840.055L683.277 840.058L683.25 829.422L684.25 829.42L684.237 824.102L683.237 824.104L683.21 813.469L684.21 813.466L684.197 808.149L683.197 808.151L683.17 797.516L684.17 797.513L684.156 792.195L683.156 792.198L683.129 781.562L684.129 781.56L684.116 776.242L683.116 776.245L683.089 765.609L684.089 765.607L684.076 760.289L683.076 760.292L683.049 749.656L684.049 749.654L684.036 744.336L683.036 744.338L683.025 740.021L678.867 740.031L678.865 739.031L673.707 739.044L673.71 740.044L663.394 740.07L663.392 739.07L658.234 739.083L658.237 740.083L647.922 740.109L647.919 739.109L642.762 739.122L642.764 740.122L632.449 740.148L632.447 739.148L627.289 739.161L627.292 740.161L616.977 740.187L616.974 739.187L611.816 739.201L611.819 740.201L601.504 740.227L601.501 739.227L596.344 739.24L596.346 740.24L592.189 740.25L592.2 744.568L591.2 744.57L591.213 749.888L592.213 749.886L592.24 760.521L591.24 760.524L591.253 765.841L592.253 765.839L592.28 776.474L591.28 776.477L591.294 781.795L592.294 781.792L592.321 792.427L591.321 792.43L591.334 797.748L592.334 797.745L592.361 808.381L591.361 808.383L591.374 813.701L592.374 813.698L592.401 824.334L591.401 824.336L591.415 829.654L592.415 829.652L592.441 840.287L591.441 840.29L591.455 845.607L592.455 845.605L592.466 849.923L596.623 849.912L596.626 850.912L601.783 850.899L601.781 849.899L612.096 849.873L612.098 850.873L617.256 850.86L617.253 849.86L627.569 849.834L627.571 850.834L632.729 850.821L632.726 849.821L643.041 849.795L643.044 850.795L648.201 850.782L648.199 849.782L658.514 849.756L658.516 850.756L663.674 850.743L663.671 849.743L673.986 849.717L673.989 850.717L679.146 850.704L679.144 849.704L683.302 849.693L683.291 845.375L684.291 845.373Z" fill="#535895" stroke="white" stroke-width="2" stroke-dasharray="10 5"/>
<path opacity="0.6" d="M661.461 490.409L661.449 485.467L660.449 485.47L660.424 475.588L661.424 475.585L661.411 470.644L660.411 470.646L660.386 460.764L661.386 460.761L661.374 455.82L660.374 455.823L660.349 445.94L661.349 445.938L661.337 440.997L660.337 440.999L660.312 431.117L661.312 431.114L661.299 426.173L660.299 426.175L660.274 416.293L661.274 416.291L661.262 411.349L660.262 411.352L660.237 401.469L661.237 401.467L661.224 396.526L660.224 396.528L660.214 392.587L656.294 392.597L656.292 391.597L651.372 391.609L651.374 392.609L641.534 392.634L641.531 391.634L636.611 391.647L636.614 392.647L626.773 392.672L626.771 391.672L621.851 391.684L621.853 392.684L612.013 392.709L612.01 391.709L607.09 391.721L607.093 392.721L597.253 392.746L597.25 391.746L592.33 391.759L592.332 392.759L582.492 392.783L582.49 391.783L577.569 391.796L577.572 392.796L573.652 392.806L573.662 396.747L572.662 396.749L572.674 401.691L573.674 401.688L573.699 411.571L572.699 411.573L572.712 416.514L573.712 416.512L573.737 426.394L572.737 426.397L572.749 431.338L573.749 431.335L573.774 441.218L572.774 441.22L572.787 446.162L573.787 446.159L573.812 456.041L572.812 456.044L572.824 460.985L573.824 460.983L573.849 470.865L572.849 470.868L572.861 475.809L573.861 475.806L573.886 485.689L572.886 485.691L572.899 490.632L573.899 490.63L573.909 494.571L577.829 494.561L577.831 495.561L582.752 495.549L582.749 494.549L592.589 494.524L592.592 495.524L597.512 495.512L597.509 494.512L607.35 494.487L607.352 495.487L612.272 495.474L612.27 494.474L622.11 494.449L622.113 495.449L627.033 495.437L627.03 494.437L636.871 494.412L636.873 495.412L641.793 495.4L641.791 494.4L651.631 494.375L651.633 495.375L656.554 495.362L656.551 494.362L660.471 494.352L660.461 490.411L661.461 490.409Z" fill="#535895" stroke="white" stroke-width="2" stroke-dasharray="10 5"/>
<path d="M662.139 112.373C661.865 115.348 660.773 117.674 658.863 119.351C656.952 121.015 654.408 121.852 651.229 121.86C649.008 121.865 647.047 121.347 645.347 120.304C643.659 119.249 642.353 117.753 641.429 115.815C640.505 113.877 640.021 111.625 639.976 109.059L639.97 106.455C639.963 103.825 640.423 101.507 641.35 99.5009C642.277 97.4945 643.607 95.9465 645.34 94.8571C647.086 93.7676 649.102 93.22 651.387 93.2142C654.463 93.2064 656.941 94.0363 658.822 95.7037C660.703 97.3712 661.8 99.73 662.114 102.78L657.289 102.792C657.054 100.789 656.463 99.3478 655.517 98.4694C654.582 97.5782 653.209 97.1349 651.396 97.1395C649.29 97.1448 647.671 97.9212 646.539 99.4686C645.419 101.003 644.851 103.258 644.833 106.232L644.839 108.702C644.846 111.715 645.388 114.011 646.465 115.591C647.554 117.171 649.139 117.959 651.219 117.954C653.121 117.949 654.55 117.517 655.505 116.66C656.46 115.802 657.063 114.377 657.313 112.385L662.139 112.373Z" fill="white"/>
<path d="M609.695 452.414L609.624 424.535L619.179 424.511C622.332 424.503 624.733 425.129 626.383 426.389C628.033 427.648 628.861 429.529 628.867 432.031C628.871 433.307 628.529 434.457 627.842 435.48C627.155 436.503 626.149 437.297 624.823 437.862C626.33 438.267 627.494 439.036 628.313 440.17C629.146 441.291 629.564 442.643 629.568 444.226C629.575 446.843 628.738 448.856 627.056 450.264C625.387 451.672 622.989 452.381 619.862 452.388L609.695 452.414ZM614.507 439.822L614.529 448.534L619.91 448.521C621.429 448.517 622.615 448.137 623.468 447.382C624.322 446.626 624.747 445.579 624.743 444.238C624.736 441.341 623.251 439.864 620.29 439.807L614.507 439.822ZM614.498 436.261L619.247 436.249C620.753 436.245 621.926 435.903 622.767 435.225C623.621 434.533 624.046 433.562 624.043 432.311C624.039 430.932 623.641 429.938 622.848 429.327C622.068 428.716 620.848 428.413 619.189 428.417L614.478 428.429L614.498 436.261Z" fill="white"/>
<path d="M644.985 822.782L634.186 822.809L631.943 829.306L626.907 829.319L637.368 801.413L641.714 801.402L652.335 829.255L647.28 829.267L644.985 822.782ZM635.535 818.9L643.616 818.879L639.546 807.325L635.535 818.9Z" fill="white"/>
</svg>